<svg width="182" height="182" viewBox="0 0 182 182" fill="none" xmlns="http://www.w3.org/2000/svg">
<g filter="url(#filter0_ii_1_6267)">
<circle cx="65.5536" cy="73.6813" r="45.3432" fill="url(#paint0_linear_1_6267)"/>
</g>
<g style="mix-blend-mode:multiply" opacity="0.6">
<path fill-rule="evenodd" clip-rule="evenodd" d="M37.7938 85.5608C37.4517 87.8099 37.1262 87.5007 36.5659 86.9685L36.5659 86.9685C36.0682 86.4957 35.3851 85.847 34.3406 86.6599C33.5899 87.4981 32.5207 89.4727 33.0257 90.027C35.9694 89.4867 35.9558 92.7933 32.9757 92.1879C31.0875 93.1819 29.8738 92.5534 29.095 92.1501C28.4363 91.809 28.0887 91.629 27.9073 92.728C28.1584 94.2224 29.3739 94.4948 30.3596 94.7157C31.303 94.9272 32.0358 95.0915 31.5107 96.2348L31.4918 96.327L31.4918 96.327C31.2723 97.3941 31.1081 98.1927 32.7801 98.4237C34.5537 98.3242 34.4676 99.9247 34.3857 101.445C34.2952 103.127 34.2099 104.711 36.6519 103.789C40.6574 103.495 39.3564 105.93 38.0149 108.441C37.8545 108.741 37.6936 109.043 37.5411 109.34C26.9877 101.038 20.2104 88.152 20.2104 73.6827C20.2104 57.9908 28.1815 44.1606 40.2954 36.0204C40.7504 36.1162 41.1897 36.3198 41.5929 36.6986L41.5974 36.7079C41.5064 36.1057 41.6656 35.4966 41.9617 34.9526C42.9552 34.3461 43.9737 33.7769 45.0155 33.2467C45.2639 33.488 45.3739 33.9564 45.2463 34.7146C45.4635 34.8101 45.7126 34.8114 45.9428 34.8125H45.9429C46.4309 34.815 46.8342 34.8171 46.6703 35.7159C46.6009 36.531 45.8589 36.7007 45.1685 36.8587L45.1685 36.8587C44.3205 37.0527 43.5503 37.229 44.1998 38.5614C44.1318 38.8145 44.0494 39.0836 43.9639 39.3629C43.4264 41.1185 42.7654 43.2776 44.7595 44.4106C47.4701 37.2828 53.0457 39.3539 56.1274 40.4986L56.1275 40.4987C57.8821 41.1503 58.8281 41.5017 57.9764 39.6837C52.5258 37.7929 55.3921 32.3022 60.3013 34.6122C59.5226 33.468 58.3478 33.2467 57.2025 33.0309L57.2021 33.0309L57.202 33.0309C56.012 32.8068 54.8538 32.5887 54.2047 31.3476C54.2323 30.9575 54.6435 30.2799 55.1446 29.5399C56.8164 29.1472 58.524 28.847 60.2615 28.6451C60.7398 30.562 61.6267 32.1445 62.7991 31.9529C63.3713 32.0818 64.0835 32.069 64.8011 32.056L64.8015 32.056C66.5201 32.0251 68.2688 31.9936 68.195 33.909C69.9953 33.1222 70.2592 34.1942 70.5158 35.2366L70.5158 35.2366L70.5158 35.2367L70.5158 35.2367C70.601 35.5825 70.6853 35.9252 70.8248 36.1956C76.5219 39.2368 74.9478 39.7524 73.2003 40.3247L73.2002 40.3248L73.2 40.3248C71.9639 40.7297 70.6412 41.1629 71.7438 42.5385C71.0366 43.631 69.8317 42.9663 68.6062 42.2902C67.2458 41.5396 65.86 40.7751 65.1012 42.3849C64.7811 43.203 65.9506 44.0815 67.2714 45.0736L67.2717 45.0738C68.8606 46.2673 70.6683 47.6252 70.3652 49.2401C69.2303 50.923 70.2913 51.9494 71.425 53.0462C72.5001 54.0862 73.6405 55.1894 73.0359 56.9755C72.2716 59.006 75.3699 60.0026 75.9841 57.6509C76.4073 55.9184 77.7221 56.5517 78.8914 57.3201C76.9532 55.6994 75.693 49.1842 79.4283 52.0484C79.654 53.4001 80.6945 54.006 81.6922 54.5869C82.8462 55.2587 83.9429 55.8973 83.6549 57.6182C81.8157 60.8888 88.3711 64.6055 94.3319 67.985C98.1911 70.1732 101.802 72.2205 102.723 73.9134C102.332 76.6145 104.106 75.7809 103.569 73.6339C103.617 73.3533 103.466 73.0404 103.322 72.7423L103.322 72.7422L103.322 72.7419C103.096 72.2734 102.887 71.842 103.496 71.6315C104.207 71.3836 104.377 71.9516 104.556 72.549L104.556 72.5492C104.646 72.8499 104.738 73.158 104.902 73.3732C105.362 68.4833 110.011 76.675 105.266 77.546C108.97 80.3979 108.197 83.8541 107.406 87.3905C107.015 89.1396 106.619 90.9084 106.759 92.6335C106.019 94.2397 105.188 95.7952 104.272 97.2935C104.138 97.0042 104.108 96.5592 104.238 95.9229C104.268 95.1435 104.623 93.8414 105.019 92.3888L105.019 92.3887C106.009 88.7549 107.257 84.1789 104.315 84.485C103.824 86.5291 103.82 88.7419 103.815 90.9953C103.808 93.8832 103.802 96.8378 102.772 99.589C101.219 101.817 99.4704 103.898 97.5519 105.809C96.9677 105.526 96.5878 104.448 96.1487 103.202C95.7459 102.06 95.2934 100.776 94.5879 99.8348C96.6853 100.161 98.2868 98.2934 99.4288 94.6608C98.1095 95.0899 97.1957 94.3199 96.4894 93.7246C95.6319 93.0021 95.0799 92.5369 94.4787 94.7866C91.5169 92.0388 87.3402 86.1895 88.3958 81.7792C89.7894 78.935 88.3055 79.2413 86.4009 79.6345C85.3087 79.86 84.0781 80.114 83.1727 79.8186C78.3272 78.5099 78.8368 84.3314 79.2918 87.461C78.6536 89.0155 79.4161 89.9925 80.175 90.9649L80.1751 90.9649L80.1755 90.9654L80.1755 90.9655C80.585 91.4902 80.9934 92.0136 81.1799 92.6256C81.9236 92.7824 82.6225 92.6908 83.294 92.6028L83.2943 92.6027C84.6973 92.4188 85.9808 92.2505 87.3038 94.3953C90.1717 95.4307 89.5628 97.3731 88.9285 99.3968C88.333 101.296 87.7152 103.267 89.929 104.627C91.6534 106.806 90.1747 109.084 87.8725 109.941C88.1168 105.283 87.9677 105.318 86.9544 105.557C86.2687 105.718 85.1872 105.973 83.564 104.93C84.2191 107.449 81.9625 107.92 80.7204 106.55C80.953 105.751 80.7628 105.098 80.5743 104.451L80.5743 104.451L80.5743 104.451C80.4236 103.934 80.274 103.42 80.3428 102.839C79.2963 104.254 78.1407 102.936 78.3818 101.483C78.0325 100.149 79.2667 99.0121 80.3285 98.0338L80.3285 98.0337C81.6312 96.8337 82.6743 95.8727 80.2154 95.0799C79.3023 94.0065 78.5763 95.3628 77.8348 96.748C77.283 97.7787 76.7228 98.8252 76.0706 98.8987C75.4779 98.3175 75.7848 97.5991 76.1141 96.8286L76.1141 96.8285C76.4496 96.0432 76.8082 95.2038 76.2617 94.4C76.2664 92.2736 74.467 92.9948 72.985 93.5887C71.64 94.1278 70.5566 94.562 71.3207 92.6676C73.7912 90.6696 71.166 88.8581 70.4744 92.3089C69.0181 91.1768 70.1759 89.2659 71.1889 87.594C72.3469 85.6828 73.3157 84.0839 69.974 84.3174C69.1148 85.2323 68.7799 84.8878 68.3341 84.4293L68.334 84.4292C68.0787 84.1666 67.787 83.8666 67.3397 83.7445C63.0082 84.2137 62.5008 80.5714 61.9618 76.7023L61.9618 76.7022C61.4896 73.3129 60.9932 69.7494 57.8808 68.6229C56.7278 67.4095 56.9382 68.2908 57.1795 69.3007C57.3114 69.8528 57.4525 70.4434 57.3849 70.7512C54.0356 69.9833 54.2488 71.3907 54.4018 72.4012C54.5467 73.3579 54.6377 73.9589 51.6022 72.0226C51.6614 73.8668 51.4839 81.0853 49.1681 77.8813C47.927 76.0279 45.9885 75.3767 44.1292 74.7523C42.1718 74.0949 40.3022 73.4669 39.4272 71.4964C37.3207 69.5304 38.1517 68.2102 39.1564 66.6141L39.1564 66.6141L39.1568 66.6135L39.1568 66.6134C39.5039 66.062 39.8716 65.4778 40.1461 64.8227C39.8488 61.9538 41.0288 62.7638 42.3644 63.6806L42.3646 63.6808C42.9303 64.0691 43.524 64.4767 44.0451 64.6318C43.6702 63.9709 43.3093 63.4008 43.0087 62.9258C41.8137 61.0379 41.5692 60.6517 45.1644 62.0285C44.2002 60.6547 44.7193 59.5119 45.2446 58.3552L45.2447 58.3552L45.2447 58.3551C45.5225 57.7436 45.8021 57.1282 45.865 56.4726C45.9036 56.0742 45.7057 55.6693 45.5094 55.2679L45.5093 55.2677C45.1504 54.5339 44.7972 53.8117 45.906 53.1613C45.0825 52.1321 42.5619 51.9691 42.1161 53.7715C41.8249 56.9476 38.3034 56.6123 37.944 54.1766C40.3371 53.5572 41.925 52.7981 41.2516 49.5987C43.3354 45.4818 30.5143 49.8549 30.8328 51.876C30.9659 52.6003 31.655 52.6548 32.2993 52.7057H32.2993L32.2997 52.7058L32.2998 52.7058C32.9768 52.7592 33.6041 52.8087 33.4853 53.6271C32.8639 54.2229 32.0538 54.0732 31.255 53.9255C30.1121 53.7141 28.9921 53.5071 28.4806 55.4946C27.3321 58.6925 29.9905 58.9547 32.2706 59.1796L32.2706 59.1796C33.7028 59.3209 34.9857 59.4474 35.0822 60.2774C35.1537 60.9959 35.6661 60.8482 36.2429 60.6819L36.2429 60.6819C36.6943 60.5519 37.185 60.4104 37.5345 60.664C36.6428 62.1402 31.9156 67.1979 31.1285 67.5332C31.4673 68.2782 33.1147 69.3217 34.824 70.4044L34.8242 70.4045C37.9127 72.3609 41.2035 74.4454 37.3434 75.129C35.9871 75.1836 36.1431 75.7411 36.2843 76.2459C36.4675 76.9011 36.626 77.4675 33.4216 76.731C33.4129 77.8581 34.4013 77.9101 35.2026 77.9523C36.0898 77.9991 36.7476 78.0337 35.569 79.5019C33.7353 82.1662 34.9842 82.4892 36.3014 82.8299L36.3015 82.8299C37.5008 83.1399 38.7565 83.4647 37.7938 85.5841V85.5608ZM91.7325 56.9741L91.7329 56.9752L91.733 56.9754C91.8945 57.3669 92.0583 57.7639 92.1717 58.1759C87.6556 57.1633 102.45 72.3429 102.696 56.2862C102.846 54.7773 101.572 52.025 100.757 50.5628C99.3239 50.4593 98.224 49.3531 97.1758 48.2989L97.1758 48.2988C96.0549 47.1715 94.9933 46.1037 93.6461 46.3854C91.9764 47.9454 86.6305 53.2778 91.2621 54.3629C91.0305 55.2727 91.3759 56.1098 91.7325 56.9741ZM38.8738 83.4473L38.8738 83.4472C39.2143 82.2875 39.525 81.2297 40.1233 82.7992C40.3292 83.5571 40.9357 83.4248 41.7565 83.2457L41.7565 83.2457L41.7566 83.2457C43.0943 82.9539 45.0011 82.5381 46.6703 85.6493C46.2754 85.9646 45.846 86.2402 45.4166 86.5158L45.4163 86.516C44.317 87.2216 43.2173 87.9276 42.6939 89.3005C41.9614 90.9491 38.1487 89.4914 38.2488 88.3038C38.5796 87.5963 38.3304 87.0432 38.1064 86.5461L38.1063 86.546C37.8836 86.0518 37.6859 85.613 38.1078 85.1324C38.4293 84.9606 38.6575 84.1835 38.8737 83.4474L38.8737 83.4474L38.8738 83.4473Z" fill="#94A3B8"/>
</g>
<g filter="url(#filter1_f_1_6267)">
<ellipse cx="65.5536" cy="54.7885" rx="26.4502" ry="18.893" fill="url(#paint1_linear_1_6267)" style="mix-blend-mode:soft-light"/>
</g>
<g filter="url(#filter2_di_1_6267)">
<ellipse cx="86.8082" cy="53.8453" rx="4.25092" ry="5.6679" transform="rotate(-22.1932 86.8082 53.8453)" fill="#94A3B8"/>
</g>
<g filter="url(#filter3_di_1_6267)">
<ellipse cx="76.1964" cy="73.4517" rx="5.31934" ry="3.70185" transform="rotate(-22.1932 76.1964 73.4517)" fill="#64748B"/>
</g>
<g filter="url(#filter4_di_1_6267)">
<ellipse cx="48.6059" cy="47.8267" rx="4.23524" ry="4.3232" transform="rotate(15.8877 48.6059 47.8267)" fill="#94A3B8"/>
</g>
<g filter="url(#filter5_di_1_6267)">
<ellipse cx="54.3023" cy="107.845" rx="4.43423" ry="4.55446" transform="rotate(-20.5835 54.3023 107.845)" fill="#475569"/>
</g>
<g filter="url(#filter6_di_1_6267)">
<ellipse cx="76.7527" cy="93.7543" rx="6.80704" ry="5.6679" transform="rotate(-20.5835 76.7527 93.7543)" fill="#475569"/>
</g>
<g filter="url(#filter7_di_1_6267)">
<ellipse cx="47.2367" cy="81.037" rx="3.49519" ry="2.91028" transform="rotate(56.5561 47.2367 81.037)" fill="#64748B"/>
</g>
<g filter="url(#filter8_di_1_6267)">
<ellipse cx="33.0075" cy="88.972" rx="1.67855" ry="1.39765" transform="rotate(-20.5835 33.0075 88.972)" fill="#94A3B8"/>
</g>
<g filter="url(#filter9_di_1_6267)">
<ellipse cx="104.458" cy="67.0793" rx="1.67855" ry="1.39765" transform="rotate(48.1814 104.458 67.0793)" fill="#94A3B8"/>
</g>
<g filter="url(#filter10_di_1_6267)">
<ellipse cx="96.054" cy="98.5371" rx="1.67855" ry="1.39765" transform="rotate(48.1814 96.054 98.5371)" fill="#64748B"/>
</g>
<g filter="url(#filter11_di_1_6267)">
<ellipse cx="70.4503" cy="41.5736" rx="1.67855" ry="1.39765" transform="rotate(20.8278 70.4503 41.5736)" fill="#94A3B8"/>
</g>
<g filter="url(#filter12_di_1_6267)">
<ellipse cx="59.1175" cy="64.25" rx="1.67855" ry="1.39765" transform="rotate(20.8278 59.1175 64.25)" fill="#94A3B8"/>
</g>
<g filter="url(#filter13_di_1_6267)">
<ellipse cx="93.125" cy="78.42" rx="1.67855" ry="1.39765" transform="rotate(94.6584 93.125 78.42)" fill="#94A3B8"/>
</g>
<g filter="url(#filter14_di_1_6267)">
<ellipse cx="64.249" cy="86.8049" rx="1.67855" ry="1.39765" transform="rotate(94.6584 64.249 86.8049)" fill="#94A3B8"/>
</g>
<g filter="url(#filter15_di_1_6267)">
<ellipse cx="72.7509" cy="112.31" rx="1.67855" ry="1.39765" transform="rotate(94.6584 72.7509 112.31)" fill="#94A3B8"/>
</g>
<g filter="url(#filter16_f_1_6267)">
<path d="M60.0685 146.626C57.4357 135.783 51.2924 131.265 48.5499 130.362H150.572C146.184 135.331 140.699 142.289 140.699 146.626C140.699 150.963 141.796 158.373 143.99 161.535H56.7775C58.9715 161.083 62.7014 157.469 60.0685 146.626Z" fill="url(#paint2_linear_1_6267)"/>
</g>
<g filter="url(#filter17_d_1_6267)">
<path fill-rule="evenodd" clip-rule="evenodd" d="M150.572 83.6358C150.572 83.6244 150.572 83.6129 150.572 83.6015C150.572 64.0372 134.712 48.1771 115.148 48.1771C99.8711 48.1771 86.8531 57.8471 81.8807 71.4C80.2748 71.0391 78.6043 70.8487 76.8894 70.8487C64.3682 70.8487 54.2178 80.9992 54.2178 93.5203C54.2178 93.5873 54.2181 93.6542 54.2187 93.7211C44.6046 95.0958 37.2141 103.364 37.2141 113.358C37.2141 124.314 46.0957 133.196 57.0517 133.196H142.056H142.07C156.157 133.196 167.576 121.776 167.576 107.69C167.576 96.5848 160.478 87.1372 150.572 83.6358Z" fill="#64748B"/>
</g>
<g filter="url(#filter18_ii_1_6267)">
<path fill-rule="evenodd" clip-rule="evenodd" d="M167.576 107.69C167.576 121.776 156.157 133.196 142.07 133.196C142.066 133.196 142.061 133.196 142.056 133.196H57.0517C46.0957 133.196 37.2141 124.314 37.2141 113.358C37.2141 102.402 46.0957 93.5203 57.0517 93.5203C64.9652 93.5203 71.7965 98.154 74.9804 104.856H116.72C118.13 92.1035 128.942 82.1845 142.07 82.1845C156.157 82.1845 167.576 93.6038 167.576 107.69Z" fill="#F1F5F9"/>
</g>
<g filter="url(#filter19_f_1_6267)">
<circle cx="57.0518" cy="113.358" r="14.1697" fill="url(#paint3_linear_1_6267)" style="mix-blend-mode:soft-light"/>
</g>
<g filter="url(#filter20_i_1_6267)">
<circle cx="76.8894" cy="93.5203" r="22.6716" fill="#F1F5F9"/>
</g>
<g filter="url(#filter21_f_1_6267)">
<ellipse cx="76.8894" cy="90.6864" rx="17.0037" ry="14.1697" fill="url(#paint4_linear_1_6267)" style="mix-blend-mode:soft-light"/>
</g>
<g filter="url(#filter22_f_1_6267)">
<circle cx="144.904" cy="104.856" r="14.1697" fill="url(#paint5_linear_1_6267)" style="mix-blend-mode:soft-light"/>
</g>
<g filter="url(#filter23_i_1_6267)">
<circle cx="115.148" cy="83.6015" r="35.4244" fill="#F1F5F9"/>
</g>
<g filter="url(#filter24_f_1_6267)">
<ellipse cx="113.731" cy="68.0148" rx="19.8376" ry="14.1697" fill="url(#paint6_linear_1_6267)" style="mix-blend-mode:soft-light"/>
</g>
<g filter="url(#filter25_i_1_6267)">
<ellipse cx="102.395" cy="106.273" rx="25.5055" ry="18.4207" fill="url(#paint7_linear_1_6267)"/>
</g>
<g filter="url(#filter26_f_1_6267)">
<ellipse cx="102.395" cy="106.273" rx="19.8376" ry="12.7528" fill="url(#paint8_linear_1_6267)" style="mix-blend-mode:soft-light"/>
</g>
<path fill-rule="evenodd" clip-rule="evenodd" d="M150.572 83.6358C150.572 83.6244 150.572 83.6129 150.572 83.6015C150.572 64.0372 134.712 48.1771 115.148 48.1771C99.8711 48.1771 86.8531 57.8471 81.8807 71.4C80.2748 71.0391 78.6043 70.8487 76.8894 70.8487C64.3682 70.8487 54.2178 80.9992 54.2178 93.5203C54.2178 93.5873 54.2181 93.6542 54.2187 93.7211C44.6046 95.0958 37.2141 103.364 37.2141 113.358C37.2141 124.314 46.0957 133.196 57.0517 133.196H142.056H142.07C156.157 133.196 167.576 121.776 167.576 107.69C167.576 96.5848 160.478 87.1372 150.572 83.6358Z" fill="#1E293B" style="mix-blend-mode:overlay"/>
<path fill-rule="evenodd" clip-rule="evenodd" d="M150.572 83.6358C150.572 83.6244 150.572 83.6129 150.572 83.6015C150.572 64.0372 134.712 48.1771 115.148 48.1771C99.8711 48.1771 86.8531 57.8471 81.8807 71.4C80.2748 71.0391 78.6043 70.8487 76.8894 70.8487C64.3682 70.8487 54.2178 80.9992 54.2178 93.5203C54.2178 93.5873 54.2181 93.6542 54.2187 93.7211C44.6046 95.0958 37.2141 103.364 37.2141 113.358C37.2141 124.314 46.0957 133.196 57.0517 133.196H142.056H142.07C156.157 133.196 167.576 121.776 167.576 107.69C167.576 96.5848 160.478 87.1372 150.572 83.6358Z" fill="#334155" fill-opacity="0.3" style="mix-blend-mode:multiply"/>
<g filter="url(#filter27_dii_1_6267)">
<path fill-rule="evenodd" clip-rule="evenodd" d="M96.727 130.362C96.727 130.362 101.53 131.779 103.812 131.779C106.093 131.779 110.897 130.362 110.897 130.362L107.054 137.524C106.042 139.412 107.409 141.698 109.552 141.698H110.51C112.878 141.698 114.201 144.429 112.734 146.288L95.1034 168.62L100.945 151.096C101.557 149.26 100.191 147.365 98.2563 147.365L94.9911 147.366C93.0568 147.366 91.6908 145.47 92.3025 143.635L96.727 130.362Z" fill="#FCD34D"/>
</g>
<g filter="url(#filter28_f_1_6267)">
<path d="M102.395 124.694C82.3089 124.694 62.7196 130.457 62.7196 133.196H142.07C142.07 130.457 122.481 124.694 102.395 124.694Z" fill="url(#paint9_radial_1_6267)"/>
</g>
<defs>
<filter id="filter0_ii_1_6267" x="20.2104" y="25.5042" width="90.6864" height="96.3543" filterUnits="userSpaceOnUse" color-interpolation-filters="sRGB">
<feFlood flood-opacity="0" result="BackgroundImageFix"/>
<feBlend mode="normal" in="SourceGraphic" in2="BackgroundImageFix" result="shape"/>
<feColorMatrix in="SourceAlpha" type="matrix" values="0 0 0 0 0 0 0 0 0 0 0 0 0 0 0 0 0 0 127 0" result="hardAlpha"/>
<feMorphology radius="2.83395" operator="erode" in="SourceAlpha" result="effect1_innerShadow_1_6267"/>
<feOffset dy="-2.83395"/>
<feGaussianBlur stdDeviation="8.50185"/>
<feComposite in2="hardAlpha" operator="arithmetic" k2="-1" k3="1"/>
<feColorMatrix type="matrix" values="0 0 0 0 0.278431 0 0 0 0 0.333333 0 0 0 0 0.411765 0 0 0 1 0"/>
<feBlend mode="normal" in2="shape" result="effect1_innerShadow_1_6267"/>
<feColorMatrix in="SourceAlpha" type="matrix" values="0 0 0 0 0 0 0 0 0 0 0 0 0 0 0 0 0 0 127 0" result="hardAlpha"/>
<feOffset dy="2.83395"/>
<feGaussianBlur stdDeviation="2.83395"/>
<feComposite in2="hardAlpha" operator="arithmetic" k2="-1" k3="1"/>
<feColorMatrix type="matrix" values="0 0 0 0 0.796078 0 0 0 0 0.835294 0 0 0 0 0.882353 0 0 0 1 0"/>
<feBlend mode="normal" in2="effect1_innerShadow_1_6267" result="effect2_innerShadow_1_6267"/>
</filter>
<filter id="filter1_f_1_6267" x="31.5462" y="28.3383" width="68.0148" height="52.9004" filterUnits="userSpaceOnUse" color-interpolation-filters="sRGB">
<feFlood flood-opacity="0" result="BackgroundImageFix"/>
<feBlend mode="normal" in="SourceGraphic" in2="BackgroundImageFix" result="shape"/>
<feGaussianBlur stdDeviation="3.7786" result="effect1_foregroundBlur_1_6267"/>
</filter>
<filter id="filter2_di_1_6267" x="80.9097" y="48.3557" width="11.7968" height="13.8132" filterUnits="userSpaceOnUse" color-interpolation-filters="sRGB">
<feFlood flood-opacity="0" result="BackgroundImageFix"/>
<feColorMatrix in="SourceAlpha" type="matrix" values="0 0 0 0 0 0 0 0 0 0 0 0 0 0 0 0 0 0 127 0" result="hardAlpha"/>
<feOffset dy="1.41697"/>
<feGaussianBlur stdDeviation="0.708487"/>
<feComposite in2="hardAlpha" operator="out"/>
<feColorMatrix type="matrix" values="0 0 0 0 0.886275 0 0 0 0 0.909804 0 0 0 0 0.941176 0 0 0 0.7 0"/>
<feBlend mode="normal" in2="BackgroundImageFix" result="effect1_dropShadow_1_6267"/>
<feBlend mode="normal" in="SourceGraphic" in2="effect1_dropShadow_1_6267" result="shape"/>
<feColorMatrix in="SourceAlpha" type="matrix" values="0 0 0 0 0 0 0 0 0 0 0 0 0 0 0 0 0 0 127 0" result="hardAlpha"/>
<feOffset dy="1.41697"/>
<feGaussianBlur stdDeviation="1.41697"/>
<feComposite in2="hardAlpha" operator="arithmetic" k2="-1" k3="1"/>
<feColorMatrix type="matrix" values="0 0 0 0 0.392157 0 0 0 0 0.454902 0 0 0 0 0.545098 0 0 0 1 0"/>
<feBlend mode="normal" in2="shape" result="effect2_innerShadow_1_6267"/>
</filter>
<filter id="filter3_di_1_6267" x="69.6582" y="69.4779" width="13.0764" height="10.7815" filterUnits="userSpaceOnUse" color-interpolation-filters="sRGB">
<feFlood flood-opacity="0" result="BackgroundImageFix"/>
<feColorMatrix in="SourceAlpha" type="matrix" values="0 0 0 0 0 0 0 0 0 0 0 0 0 0 0 0 0 0 127 0" result="hardAlpha"/>
<feOffset dy="1.41697"/>
<feGaussianBlur stdDeviation="0.708487"/>
<feComposite in2="hardAlpha" operator="out"/>
<feColorMatrix type="matrix" values="0 0 0 0 0.886275 0 0 0 0 0.909804 0 0 0 0 0.941176 0 0 0 0.7 0"/>
<feBlend mode="normal" in2="BackgroundImageFix" result="effect1_dropShadow_1_6267"/>
<feBlend mode="normal" in="SourceGraphic" in2="effect1_dropShadow_1_6267" result="shape"/>
<feColorMatrix in="SourceAlpha" type="matrix" values="0 0 0 0 0 0 0 0 0 0 0 0 0 0 0 0 0 0 127 0" result="hardAlpha"/>
<feOffset dy="1.41697"/>
<feGaussianBlur stdDeviation="1.41697"/>
<feComposite in2="hardAlpha" operator="arithmetic" k2="-1" k3="1"/>
<feColorMatrix type="matrix" values="0 0 0 0 0.392157 0 0 0 0 0.454902 0 0 0 0 0.545098 0 0 0 1 0"/>
<feBlend mode="normal" in2="shape" result="effect2_innerShadow_1_6267"/>
</filter>
<filter id="filter4_di_1_6267" x="42.9459" y="43.5089" width="11.3199" height="11.4695" filterUnits="userSpaceOnUse" color-interpolation-filters="sRGB">
<feFlood flood-opacity="0" result="BackgroundImageFix"/>
<feColorMatrix in="SourceAlpha" type="matrix" values="0 0 0 0 0 0 0 0 0 0 0 0 0 0 0 0 0 0 127 0" result="hardAlpha"/>
<feOffset dy="1.41697"/>
<feGaussianBlur stdDeviation="0.708487"/>
<feComposite in2="hardAlpha" operator="out"/>
<feColorMatrix type="matrix" values="0 0 0 0 0.886275 0 0 0 0 0.909804 0 0 0 0 0.941176 0 0 0 0.7 0"/>
<feBlend mode="normal" in2="BackgroundImageFix" result="effect1_dropShadow_1_6267"/>
<feBlend mode="normal" in="SourceGraphic" in2="effect1_dropShadow_1_6267" result="shape"/>
<feColorMatrix in="SourceAlpha" type="matrix" values="0 0 0 0 0 0 0 0 0 0 0 0 0 0 0 0 0 0 127 0" result="hardAlpha"/>
<feOffset dy="1.41697"/>
<feGaussianBlur stdDeviation="1.41697"/>
<feComposite in2="hardAlpha" operator="arithmetic" k2="-1" k3="1"/>
<feColorMatrix type="matrix" values="0 0 0 0 0.392157 0 0 0 0 0.454902 0 0 0 0 0.545098 0 0 0 1 0"/>
<feBlend mode="normal" in2="shape" result="effect2_innerShadow_1_6267"/>
</filter>
<filter id="filter5_di_1_6267" x="48.4348" y="103.304" width="11.7349" height="11.916" filterUnits="userSpaceOnUse" color-interpolation-filters="sRGB">
<feFlood flood-opacity="0" result="BackgroundImageFix"/>
<feColorMatrix in="SourceAlpha" type="matrix" values="0 0 0 0 0 0 0 0 0 0 0 0 0 0 0 0 0 0 127 0" result="hardAlpha"/>
<feOffset dy="1.41697"/>
<feGaussianBlur stdDeviation="0.708487"/>
<feComposite in2="hardAlpha" operator="out"/>
<feColorMatrix type="matrix" values="0 0 0 0 0.886275 0 0 0 0 0.909804 0 0 0 0 0.941176 0 0 0 0.15 0"/>
<feBlend mode="normal" in2="BackgroundImageFix" result="effect1_dropShadow_1_6267"/>
<feBlend mode="normal" in="SourceGraphic" in2="effect1_dropShadow_1_6267" result="shape"/>
<feColorMatrix in="SourceAlpha" type="matrix" values="0 0 0 0 0 0 0 0 0 0 0 0 0 0 0 0 0 0 127 0" result="hardAlpha"/>
<feOffset dy="1.41697"/>
<feGaussianBlur stdDeviation="1.41697"/>
<feComposite in2="hardAlpha" operator="arithmetic" k2="-1" k3="1"/>
<feColorMatrix type="matrix" values="0 0 0 0 0.392157 0 0 0 0 0.454902 0 0 0 0 0.545098 0 0 0 1 0"/>
<feBlend mode="normal" in2="shape" result="effect2_innerShadow_1_6267"/>
</filter>
<filter id="filter6_di_1_6267" x="68.6572" y="87.932" width="16.1911" height="14.4784" filterUnits="userSpaceOnUse" color-interpolation-filters="sRGB">
<feFlood flood-opacity="0" result="BackgroundImageFix"/>
<feColorMatrix in="SourceAlpha" type="matrix" values="0 0 0 0 0 0 0 0 0 0 0 0 0 0 0 0 0 0 127 0" result="hardAlpha"/>
<feOffset dy="1.41697"/>
<feGaussianBlur stdDeviation="0.708487"/>
<feComposite in2="hardAlpha" operator="out"/>
<feColorMatrix type="matrix" values="0 0 0 0 0.886275 0 0 0 0 0.909804 0 0 0 0 0.941176 0 0 0 0.3 0"/>
<feBlend mode="normal" in2="BackgroundImageFix" result="effect1_dropShadow_1_6267"/>
<feBlend mode="normal" in="SourceGraphic" in2="effect1_dropShadow_1_6267" result="shape"/>
<feColorMatrix in="SourceAlpha" type="matrix" values="0 0 0 0 0 0 0 0 0 0 0 0 0 0 0 0 0 0 127 0" result="hardAlpha"/>
<feOffset dy="1.41697"/>
<feGaussianBlur stdDeviation="1.41697"/>
<feComposite in2="hardAlpha" operator="arithmetic" k2="-1" k3="1"/>
<feColorMatrix type="matrix" values="0 0 0 0 0.392157 0 0 0 0 0.454902 0 0 0 0 0.545098 0 0 0 1 0"/>
<feBlend mode="normal" in2="shape" result="effect2_innerShadow_1_6267"/>
</filter>
<filter id="filter7_di_1_6267" x="42.72" y="77.708" width="9.03346" height="9.49202" filterUnits="userSpaceOnUse" color-interpolation-filters="sRGB">
<feFlood flood-opacity="0" result="BackgroundImageFix"/>
<feColorMatrix in="SourceAlpha" type="matrix" values="0 0 0 0 0 0 0 0 0 0 0 0 0 0 0 0 0 0 127 0" result="hardAlpha"/>
<feOffset dy="1.41697"/>
<feGaussianBlur stdDeviation="0.708487"/>
<feComposite in2="hardAlpha" operator="out"/>
<feColorMatrix type="matrix" values="0 0 0 0 0.886275 0 0 0 0 0.909804 0 0 0 0 0.941176 0 0 0 0.7 0"/>
<feBlend mode="normal" in2="BackgroundImageFix" result="effect1_dropShadow_1_6267"/>
<feBlend mode="normal" in="SourceGraphic" in2="effect1_dropShadow_1_6267" result="shape"/>
<feColorMatrix in="SourceAlpha" type="matrix" values="0 0 0 0 0 0 0 0 0 0 0 0 0 0 0 0 0 0 127 0" result="hardAlpha"/>
<feOffset dy="1.41697"/>
<feGaussianBlur stdDeviation="1.41697"/>
<feComposite in2="hardAlpha" operator="arithmetic" k2="-1" k3="1"/>
<feColorMatrix type="matrix" values="0 0 0 0 0.392157 0 0 0 0 0.454902 0 0 0 0 0.545098 0 0 0 1 0"/>
<feBlend mode="normal" in2="shape" result="effect2_innerShadow_1_6267"/>
</filter>
<filter id="filter8_di_1_6267" x="29.9436" y="87.5363" width="6.12768" height="5.70535" filterUnits="userSpaceOnUse" color-interpolation-filters="sRGB">
<feFlood flood-opacity="0" result="BackgroundImageFix"/>
<feColorMatrix in="SourceAlpha" type="matrix" values="0 0 0 0 0 0 0 0 0 0 0 0 0 0 0 0 0 0 127 0" result="hardAlpha"/>
<feOffset dy="1.41697"/>
<feGaussianBlur stdDeviation="0.708487"/>
<feComposite in2="hardAlpha" operator="out"/>
<feColorMatrix type="matrix" values="0 0 0 0 0.886275 0 0 0 0 0.909804 0 0 0 0 0.941176 0 0 0 0.2 0"/>
<feBlend mode="normal" in2="BackgroundImageFix" result="effect1_dropShadow_1_6267"/>
<feBlend mode="normal" in="SourceGraphic" in2="effect1_dropShadow_1_6267" result="shape"/>
<feColorMatrix in="SourceAlpha" type="matrix" values="0 0 0 0 0 0 0 0 0 0 0 0 0 0 0 0 0 0 127 0" result="hardAlpha"/>
<feOffset dy="1.41697"/>
<feGaussianBlur stdDeviation="1.41697"/>
<feComposite in2="hardAlpha" operator="arithmetic" k2="-1" k3="1"/>
<feColorMatrix type="matrix" values="0 0 0 0 0.392157 0 0 0 0 0.454902 0 0 0 0 0.545098 0 0 0 1 0"/>
<feBlend mode="normal" in2="shape" result="effect2_innerShadow_1_6267"/>
</filter>
<filter id="filter9_di_1_6267" x="101.512" y="65.5193" width="5.8918" height="5.95397" filterUnits="userSpaceOnUse" color-interpolation-filters="sRGB">
<feFlood flood-opacity="0" result="BackgroundImageFix"/>
<feColorMatrix in="SourceAlpha" type="matrix" values="0 0 0 0 0 0 0 0 0 0 0 0 0 0 0 0 0 0 127 0" result="hardAlpha"/>
<feOffset dy="1.41697"/>
<feGaussianBlur stdDeviation="0.708487"/>
<feComposite in2="hardAlpha" operator="out"/>
<feColorMatrix type="matrix" values="0 0 0 0 0.886275 0 0 0 0 0.909804 0 0 0 0 0.941176 0 0 0 0.2 0"/>
<feBlend mode="normal" in2="BackgroundImageFix" result="effect1_dropShadow_1_6267"/>
<feBlend mode="normal" in="SourceGraphic" in2="effect1_dropShadow_1_6267" result="shape"/>
<feColorMatrix in="SourceAlpha" type="matrix" values="0 0 0 0 0 0 0 0 0 0 0 0 0 0 0 0 0 0 127 0" result="hardAlpha"/>
<feOffset dy="1.41697"/>
<feGaussianBlur stdDeviation="1.41697"/>
<feComposite in2="hardAlpha" operator="arithmetic" k2="-1" k3="1"/>
<feColorMatrix type="matrix" values="0 0 0 0 0.392157 0 0 0 0 0.454902 0 0 0 0 0.545098 0 0 0 1 0"/>
<feBlend mode="normal" in2="shape" result="effect2_innerShadow_1_6267"/>
</filter>
<filter id="filter10_di_1_6267" x="93.108" y="96.9771" width="5.8918" height="5.95397" filterUnits="userSpaceOnUse" color-interpolation-filters="sRGB">
<feFlood flood-opacity="0" result="BackgroundImageFix"/>
<feColorMatrix in="SourceAlpha" type="matrix" values="0 0 0 0 0 0 0 0 0 0 0 0 0 0 0 0 0 0 127 0" result="hardAlpha"/>
<feOffset dy="1.41697"/>
<feGaussianBlur stdDeviation="0.708487"/>
<feComposite in2="hardAlpha" operator="out"/>
<feColorMatrix type="matrix" values="0 0 0 0 0.886275 0 0 0 0 0.909804 0 0 0 0 0.941176 0 0 0 0.2 0"/>
<feBlend mode="normal" in2="BackgroundImageFix" result="effect1_dropShadow_1_6267"/>
<feBlend mode="normal" in="SourceGraphic" in2="effect1_dropShadow_1_6267" result="shape"/>
<feColorMatrix in="SourceAlpha" type="matrix" values="0 0 0 0 0 0 0 0 0 0 0 0 0 0 0 0 0 0 127 0" result="hardAlpha"/>
<feOffset dy="1.41697"/>
<feGaussianBlur stdDeviation="1.41697"/>
<feComposite in2="hardAlpha" operator="arithmetic" k2="-1" k3="1"/>
<feColorMatrix type="matrix" values="0 0 0 0 0.392157 0 0 0 0 0.454902 0 0 0 0 0.545098 0 0 0 1 0"/>
<feBlend mode="normal" in2="shape" result="effect2_innerShadow_1_6267"/>
</filter>
<filter id="filter11_di_1_6267" x="67.3872" y="40.137" width="6.1262" height="5.70704" filterUnits="userSpaceOnUse" color-interpolation-filters="sRGB">
<feFlood flood-opacity="0" result="BackgroundImageFix"/>
<feColorMatrix in="SourceAlpha" type="matrix" values="0 0 0 0 0 0 0 0 0 0 0 0 0 0 0 0 0 0 127 0" result="hardAlpha"/>
<feOffset dy="1.41697"/>
<feGaussianBlur stdDeviation="0.708487"/>
<feComposite in2="hardAlpha" operator="out"/>
<feColorMatrix type="matrix" values="0 0 0 0 0.886275 0 0 0 0 0.909804 0 0 0 0 0.941176 0 0 0 0.7 0"/>
<feBlend mode="normal" in2="BackgroundImageFix" result="effect1_dropShadow_1_6267"/>
<feBlend mode="normal" in="SourceGraphic" in2="effect1_dropShadow_1_6267" result="shape"/>
<feColorMatrix in="SourceAlpha" type="matrix" values="0 0 0 0 0 0 0 0 0 0 0 0 0 0 0 0 0 0 127 0" result="hardAlpha"/>
<feOffset dy="1.41697"/>
<feGaussianBlur stdDeviation="1.41697"/>
<feComposite in2="hardAlpha" operator="arithmetic" k2="-1" k3="1"/>
<feColorMatrix type="matrix" values="0 0 0 0 0.392157 0 0 0 0 0.454902 0 0 0 0 0.545098 0 0 0 1 0"/>
<feBlend mode="normal" in2="shape" result="effect2_innerShadow_1_6267"/>
</filter>
<filter id="filter12_di_1_6267" x="56.0544" y="62.8135" width="6.1262" height="5.70704" filterUnits="userSpaceOnUse" color-interpolation-filters="sRGB">
<feFlood flood-opacity="0" result="BackgroundImageFix"/>
<feColorMatrix in="SourceAlpha" type="matrix" values="0 0 0 0 0 0 0 0 0 0 0 0 0 0 0 0 0 0 127 0" result="hardAlpha"/>
<feOffset dy="1.41697"/>
<feGaussianBlur stdDeviation="0.708487"/>
<feComposite in2="hardAlpha" operator="out"/>
<feColorMatrix type="matrix" values="0 0 0 0 0.886275 0 0 0 0 0.909804 0 0 0 0 0.941176 0 0 0 0.7 0"/>
<feBlend mode="normal" in2="BackgroundImageFix" result="effect1_dropShadow_1_6267"/>
<feBlend mode="normal" in="SourceGraphic" in2="effect1_dropShadow_1_6267" result="shape"/>
<feColorMatrix in="SourceAlpha" type="matrix" values="0 0 0 0 0 0 0 0 0 0 0 0 0 0 0 0 0 0 127 0" result="hardAlpha"/>
<feOffset dy="1.41697"/>
<feGaussianBlur stdDeviation="1.41697"/>
<feComposite in2="hardAlpha" operator="arithmetic" k2="-1" k3="1"/>
<feColorMatrix type="matrix" values="0 0 0 0 0.392157 0 0 0 0 0.454902 0 0 0 0 0.545098 0 0 0 1 0"/>
<feBlend mode="normal" in2="shape" result="effect2_innerShadow_1_6267"/>
</filter>
<filter id="filter13_di_1_6267" x="90.3082" y="76.7431" width="5.63353" height="6.18778" filterUnits="userSpaceOnUse" color-interpolation-filters="sRGB">
<feFlood flood-opacity="0" result="BackgroundImageFix"/>
<feColorMatrix in="SourceAlpha" type="matrix" values="0 0 0 0 0 0 0 0 0 0 0 0 0 0 0 0 0 0 127 0" result="hardAlpha"/>
<feOffset dy="1.41697"/>
<feGaussianBlur stdDeviation="0.708487"/>
<feComposite in2="hardAlpha" operator="out"/>
<feColorMatrix type="matrix" values="0 0 0 0 0.886275 0 0 0 0 0.909804 0 0 0 0 0.941176 0 0 0 0.4 0"/>
<feBlend mode="normal" in2="BackgroundImageFix" result="effect1_dropShadow_1_6267"/>
<feBlend mode="normal" in="SourceGraphic" in2="effect1_dropShadow_1_6267" result="shape"/>
<feColorMatrix in="SourceAlpha" type="matrix" values="0 0 0 0 0 0 0 0 0 0 0 0 0 0 0 0 0 0 127 0" result="hardAlpha"/>
<feOffset dy="1.41697"/>
<feGaussianBlur stdDeviation="1.41697"/>
<feComposite in2="hardAlpha" operator="arithmetic" k2="-1" k3="1"/>
<feColorMatrix type="matrix" values="0 0 0 0 0.392157 0 0 0 0 0.454902 0 0 0 0 0.545098 0 0 0 1 0"/>
<feBlend mode="normal" in2="shape" result="effect2_innerShadow_1_6267"/>
</filter>
<filter id="filter14_di_1_6267" x="61.4323" y="85.128" width="5.63353" height="6.18778" filterUnits="userSpaceOnUse" color-interpolation-filters="sRGB">
<feFlood flood-opacity="0" result="BackgroundImageFix"/>
<feColorMatrix in="SourceAlpha" type="matrix" values="0 0 0 0 0 0 0 0 0 0 0 0 0 0 0 0 0 0 127 0" result="hardAlpha"/>
<feOffset dy="1.41697"/>
<feGaussianBlur stdDeviation="0.708487"/>
<feComposite in2="hardAlpha" operator="out"/>
<feColorMatrix type="matrix" values="0 0 0 0 0.886275 0 0 0 0 0.909804 0 0 0 0 0.941176 0 0 0 0.4 0"/>
<feBlend mode="normal" in2="BackgroundImageFix" result="effect1_dropShadow_1_6267"/>
<feBlend mode="normal" in="SourceGraphic" in2="effect1_dropShadow_1_6267" result="shape"/>
<feColorMatrix in="SourceAlpha" type="matrix" values="0 0 0 0 0 0 0 0 0 0 0 0 0 0 0 0 0 0 127 0" result="hardAlpha"/>
<feOffset dy="1.41697"/>
<feGaussianBlur stdDeviation="1.41697"/>
<feComposite in2="hardAlpha" operator="arithmetic" k2="-1" k3="1"/>
<feColorMatrix type="matrix" values="0 0 0 0 0.392157 0 0 0 0 0.454902 0 0 0 0 0.545098 0 0 0 1 0"/>
<feBlend mode="normal" in2="shape" result="effect2_innerShadow_1_6267"/>
</filter>
<filter id="filter15_di_1_6267" x="69.9341" y="110.634" width="5.63353" height="6.18777" filterUnits="userSpaceOnUse" color-interpolation-filters="sRGB">
<feFlood flood-opacity="0" result="BackgroundImageFix"/>
<feColorMatrix in="SourceAlpha" type="matrix" values="0 0 0 0 0 0 0 0 0 0 0 0 0 0 0 0 0 0 127 0" result="hardAlpha"/>
<feOffset dy="1.41697"/>
<feGaussianBlur stdDeviation="0.708487"/>
<feComposite in2="hardAlpha" operator="out"/>
<feColorMatrix type="matrix" values="0 0 0 0 0.886275 0 0 0 0 0.909804 0 0 0 0 0.941176 0 0 0 0.2 0"/>
<feBlend mode="normal" in2="BackgroundImageFix" result="effect1_dropShadow_1_6267"/>
<feBlend mode="normal" in="SourceGraphic" in2="effect1_dropShadow_1_6267" result="shape"/>
<feColorMatrix in="SourceAlpha" type="matrix" values="0 0 0 0 0 0 0 0 0 0 0 0 0 0 0 0 0 0 127 0" result="hardAlpha"/>
<feOffset dy="1.41697"/>
<feGaussianBlur stdDeviation="1.41697"/>
<feComposite in2="hardAlpha" operator="arithmetic" k2="-1" k3="1"/>
<feColorMatrix type="matrix" values="0 0 0 0 0.392157 0 0 0 0 0.454902 0 0 0 0 0.545098 0 0 0 1 0"/>
<feBlend mode="normal" in2="shape" result="effect2_innerShadow_1_6267"/>
</filter>
<filter id="filter16_f_1_6267" x="42.882" y="124.694" width="113.358" height="42.5092" filterUnits="userSpaceOnUse" color-interpolation-filters="sRGB">
<feFlood flood-opacity="0" result="BackgroundImageFix"/>
<feBlend mode="normal" in="SourceGraphic" in2="BackgroundImageFix" result="shape"/>
<feGaussianBlur stdDeviation="2.83395" result="effect1_foregroundBlur_1_6267"/>
</filter>
<filter id="filter17_d_1_6267" x="25.8783" y="42.5092" width="153.033" height="107.69" filterUnits="userSpaceOnUse" color-interpolation-filters="sRGB">
<feFlood flood-opacity="0" result="BackgroundImageFix"/>
<feColorMatrix in="SourceAlpha" type="matrix" values="0 0 0 0 0 0 0 0 0 0 0 0 0 0 0 0 0 0 127 0" result="hardAlpha"/>
<feOffset dy="5.6679"/>
<feGaussianBlur stdDeviation="5.6679"/>
<feComposite in2="hardAlpha" operator="out"/>
<feColorMatrix type="matrix" values="0 0 0 0 0.278431 0 0 0 0 0.333333 0 0 0 0 0.411765 0 0 0 0.4 0"/>
<feBlend mode="normal" in2="BackgroundImageFix" result="effect1_dropShadow_1_6267"/>
<feBlend mode="normal" in="SourceGraphic" in2="effect1_dropShadow_1_6267" result="shape"/>
</filter>
<filter id="filter18_ii_1_6267" x="37.2141" y="76.5166" width="130.362" height="62.3469" filterUnits="userSpaceOnUse" color-interpolation-filters="sRGB">
<feFlood flood-opacity="0" result="BackgroundImageFix"/>
<feBlend mode="normal" in="SourceGraphic" in2="BackgroundImageFix" result="shape"/>
<feColorMatrix in="SourceAlpha" type="matrix" values="0 0 0 0 0 0 0 0 0 0 0 0 0 0 0 0 0 0 127 0" result="hardAlpha"/>
<feOffset dy="5.6679"/>
<feGaussianBlur stdDeviation="2.83395"/>
<feComposite in2="hardAlpha" operator="arithmetic" k2="-1" k3="1"/>
<feColorMatrix type="matrix" values="0 0 0 0 0.796078 0 0 0 0 0.835294 0 0 0 0 0.882353 0 0 0 1 0"/>
<feBlend mode="normal" in2="shape" result="effect1_innerShadow_1_6267"/>
<feColorMatrix in="SourceAlpha" type="matrix" values="0 0 0 0 0 0 0 0 0 0 0 0 0 0 0 0 0 0 127 0" result="hardAlpha"/>
<feOffset dy="-5.6679"/>
<feGaussianBlur stdDeviation="2.83395"/>
<feComposite in2="hardAlpha" operator="arithmetic" k2="-1" k3="1"/>
<feColorMatrix type="matrix" values="0 0 0 0 0.796078 0 0 0 0 0.835294 0 0 0 0 0.882353 0 0 0 0.6 0"/>
<feBlend mode="normal" in2="effect1_innerShadow_1_6267" result="effect2_innerShadow_1_6267"/>
</filter>
<filter id="filter19_f_1_6267" x="37.2141" y="93.5203" width="39.6753" height="39.6753" filterUnits="userSpaceOnUse" color-interpolation-filters="sRGB">
<feFlood flood-opacity="0" result="BackgroundImageFix"/>
<feBlend mode="normal" in="SourceGraphic" in2="BackgroundImageFix" result="shape"/>
<feGaussianBlur stdDeviation="2.83395" result="effect1_foregroundBlur_1_6267"/>
</filter>
<filter id="filter20_i_1_6267" x="54.2178" y="70.8487" width="45.3432" height="51.0111" filterUnits="userSpaceOnUse" color-interpolation-filters="sRGB">
<feFlood flood-opacity="0" result="BackgroundImageFix"/>
<feBlend mode="normal" in="SourceGraphic" in2="BackgroundImageFix" result="shape"/>
<feColorMatrix in="SourceAlpha" type="matrix" values="0 0 0 0 0 0 0 0 0 0 0 0 0 0 0 0 0 0 127 0" result="hardAlpha"/>
<feOffset dy="5.6679"/>
<feGaussianBlur stdDeviation="2.83395"/>
<feComposite in2="hardAlpha" operator="arithmetic" k2="-1" k3="1"/>
<feColorMatrix type="matrix" values="0 0 0 0 0.796078 0 0 0 0 0.835294 0 0 0 0 0.882353 0 0 0 1 0"/>
<feBlend mode="normal" in2="shape" result="effect1_innerShadow_1_6267"/>
</filter>
<filter id="filter21_f_1_6267" x="54.2178" y="70.8487" width="45.3432" height="39.6753" filterUnits="userSpaceOnUse" color-interpolation-filters="sRGB">
<feFlood flood-opacity="0" result="BackgroundImageFix"/>
<feBlend mode="normal" in="SourceGraphic" in2="BackgroundImageFix" result="shape"/>
<feGaussianBlur stdDeviation="2.83395" result="effect1_foregroundBlur_1_6267"/>
</filter>
<filter id="filter22_f_1_6267" x="125.067" y="85.0185" width="39.6753" height="39.6753" filterUnits="userSpaceOnUse" color-interpolation-filters="sRGB">
<feFlood flood-opacity="0" result="BackgroundImageFix"/>
<feBlend mode="normal" in="SourceGraphic" in2="BackgroundImageFix" result="shape"/>
<feGaussianBlur stdDeviation="2.83395" result="effect1_foregroundBlur_1_6267"/>
</filter>
<filter id="filter23_i_1_6267" x="79.7233" y="48.1771" width="70.8487" height="76.5166" filterUnits="userSpaceOnUse" color-interpolation-filters="sRGB">
<feFlood flood-opacity="0" result="BackgroundImageFix"/>
<feBlend mode="normal" in="SourceGraphic" in2="BackgroundImageFix" result="shape"/>
<feColorMatrix in="SourceAlpha" type="matrix" values="0 0 0 0 0 0 0 0 0 0 0 0 0 0 0 0 0 0 127 0" result="hardAlpha"/>
<feOffset dy="5.6679"/>
<feGaussianBlur stdDeviation="2.83395"/>
<feComposite in2="hardAlpha" operator="arithmetic" k2="-1" k3="1"/>
<feColorMatrix type="matrix" values="0 0 0 0 0.796078 0 0 0 0 0.835294 0 0 0 0 0.882353 0 0 0 1 0"/>
<feBlend mode="normal" in2="shape" result="effect1_innerShadow_1_6267"/>
</filter>
<filter id="filter24_f_1_6267" x="88.2252" y="48.1771" width="51.0111" height="39.6753" filterUnits="userSpaceOnUse" color-interpolation-filters="sRGB">
<feFlood flood-opacity="0" result="BackgroundImageFix"/>
<feBlend mode="normal" in="SourceGraphic" in2="BackgroundImageFix" result="shape"/>
<feGaussianBlur stdDeviation="2.83395" result="effect1_foregroundBlur_1_6267"/>
</filter>
<filter id="filter25_i_1_6267" x="76.8894" y="87.8524" width="51.0111" height="42.5092" filterUnits="userSpaceOnUse" color-interpolation-filters="sRGB">
<feFlood flood-opacity="0" result="BackgroundImageFix"/>
<feBlend mode="normal" in="SourceGraphic" in2="BackgroundImageFix" result="shape"/>
<feColorMatrix in="SourceAlpha" type="matrix" values="0 0 0 0 0 0 0 0 0 0 0 0 0 0 0 0 0 0 127 0" result="hardAlpha"/>
<feOffset dy="5.6679"/>
<feGaussianBlur stdDeviation="2.83395"/>
<feComposite in2="hardAlpha" operator="arithmetic" k2="-1" k3="1"/>
<feColorMatrix type="matrix" values="0 0 0 0 0.796078 0 0 0 0 0.835294 0 0 0 0 0.882353 0 0 0 0.6 0"/>
<feBlend mode="normal" in2="shape" result="effect1_innerShadow_1_6267"/>
</filter>
<filter id="filter26_f_1_6267" x="76.8894" y="87.8524" width="51.0111" height="36.8413" filterUnits="userSpaceOnUse" color-interpolation-filters="sRGB">
<feFlood flood-opacity="0" result="BackgroundImageFix"/>
<feBlend mode="normal" in="SourceGraphic" in2="BackgroundImageFix" result="shape"/>
<feGaussianBlur stdDeviation="2.83395" result="effect1_foregroundBlur_1_6267"/>
</filter>
<filter id="filter27_dii_1_6267" x="86.487" y="124.694" width="32.5301" height="49.5941" filterUnits="userSpaceOnUse" color-interpolation-filters="sRGB">
<feFlood flood-opacity="0" result="BackgroundImageFix"/>
<feColorMatrix in="SourceAlpha" type="matrix" values="0 0 0 0 0 0 0 0 0 0 0 0 0 0 0 0 0 0 127 0" result="hardAlpha"/>
<feOffset/>
<feGaussianBlur stdDeviation="2.83395"/>
<feComposite in2="hardAlpha" operator="out"/>
<feColorMatrix type="matrix" values="0 0 0 0 0.988235 0 0 0 0 0.827451 0 0 0 0 0.301961 0 0 0 1 0"/>
<feBlend mode="normal" in2="BackgroundImageFix" result="effect1_dropShadow_1_6267"/>
<feBlend mode="normal" in="SourceGraphic" in2="effect1_dropShadow_1_6267" result="shape"/>
<feColorMatrix in="SourceAlpha" type="matrix" values="0 0 0 0 0 0 0 0 0 0 0 0 0 0 0 0 0 0 127 0" result="hardAlpha"/>
<feOffset dy="11.3358"/>
<feGaussianBlur stdDeviation="2.83395"/>
<feComposite in2="hardAlpha" operator="arithmetic" k2="-1" k3="1"/>
<feColorMatrix type="matrix" values="0 0 0 0 1 0 0 0 0 0.9575 0 0 0 0 0.7875 0 0 0 1 0"/>
<feBlend mode="normal" in2="shape" result="effect2_innerShadow_1_6267"/>
<feColorMatrix in="SourceAlpha" type="matrix" values="0 0 0 0 0 0 0 0 0 0 0 0 0 0 0 0 0 0 127 0" result="hardAlpha"/>
<feOffset/>
<feGaussianBlur stdDeviation="1.41697"/>
<feComposite in2="hardAlpha" operator="arithmetic" k2="-1" k3="1"/>
<feColorMatrix type="matrix" values="0 0 0 0 0.960784 0 0 0 0 0.619608 0 0 0 0 0.0431373 0 0 0 1 0"/>
<feBlend mode="normal" in2="effect2_innerShadow_1_6267" result="effect3_innerShadow_1_6267"/>
</filter>
<filter id="filter28_f_1_6267" x="57.0517" y="119.026" width="90.6864" height="19.8376" filterUnits="userSpaceOnUse" color-interpolation-filters="sRGB">
<feFlood flood-opacity="0" result="BackgroundImageFix"/>
<feBlend mode="normal" in="SourceGraphic" in2="BackgroundImageFix" result="shape"/>
<feGaussianBlur stdDeviation="2.83395" result="effect1_foregroundBlur_1_6267"/>
</filter>
<linearGradient id="paint0_linear_1_6267" x1="65.5536" y1="28.3381" x2="65.5536" y2="119.024" gradientUnits="userSpaceOnUse">
<stop stop-color="#E2E8F0"/>
<stop offset="1" stop-color="#64748B"/>
</linearGradient>
<linearGradient id="paint1_linear_1_6267" x1="65.5536" y1="35.8955" x2="65.5536" y2="73.6815" gradientUnits="userSpaceOnUse">
<stop stop-color="#F1F5F9"/>
<stop offset="1" stop-color="#E2E8F0" stop-opacity="0"/>
</linearGradient>
<linearGradient id="paint2_linear_1_6267" x1="99.561" y1="130.362" x2="99.561" y2="161.535" gradientUnits="userSpaceOnUse">
<stop stop-color="#94A3B8"/>
<stop offset="1" stop-color="#94A3B8" stop-opacity="0"/>
</linearGradient>
<linearGradient id="paint3_linear_1_6267" x1="57.0518" y1="99.1882" x2="57.0518" y2="127.528" gradientUnits="userSpaceOnUse">
<stop stop-color="white"/>
<stop offset="1" stop-color="#F3F3F3" stop-opacity="0.2"/>
</linearGradient>
<linearGradient id="paint4_linear_1_6267" x1="76.8894" y1="76.5166" x2="76.8894" y2="104.856" gradientUnits="userSpaceOnUse">
<stop stop-color="white"/>
<stop offset="1" stop-color="#F3F3F3" stop-opacity="0.2"/>
</linearGradient>
<linearGradient id="paint5_linear_1_6267" x1="144.904" y1="90.6864" x2="144.904" y2="119.026" gradientUnits="userSpaceOnUse">
<stop stop-color="white"/>
<stop offset="1" stop-color="#F3F3F3" stop-opacity="0.2"/>
</linearGradient>
<linearGradient id="paint6_linear_1_6267" x1="113.731" y1="53.845" x2="113.731" y2="82.1845" gradientUnits="userSpaceOnUse">
<stop stop-color="white"/>
<stop offset="1" stop-color="#F3F3F3" stop-opacity="0.2"/>
</linearGradient>
<linearGradient id="paint7_linear_1_6267" x1="102.395" y1="87.8524" x2="102.395" y2="124.694" gradientUnits="userSpaceOnUse">
<stop stop-color="#F1F5F9"/>
<stop offset="0.650321" stop-color="#F1F5F9" stop-opacity="0"/>
</linearGradient>
<linearGradient id="paint8_linear_1_6267" x1="102.395" y1="93.5203" x2="102.395" y2="119.026" gradientUnits="userSpaceOnUse">
<stop stop-color="white"/>
<stop offset="1" stop-color="#F3F3F3" stop-opacity="0.2"/>
</linearGradient>
<radialGradient id="paint9_radial_1_6267" cx="0" cy="0" r="1" gradientUnits="userSpaceOnUse" gradientTransform="translate(102.395 134.613) rotate(-90) scale(17.0037 38.0883)">
<stop offset="0.28125" stop-color="#FEF08A"/>
<stop offset="1" stop-color="#FEF08A" stop-opacity="0"/>
</radialGradient>
</defs>
</svg>
