<svg width="182" height="182" viewBox="0 0 182 182" fill="none" xmlns="http://www.w3.org/2000/svg">
<g filter="url(#filter0_ii_1_6266)">
<circle cx="90.6864" cy="90.685" r="45.3432" fill="url(#paint0_linear_1_6266)"/>
</g>
<g style="mix-blend-mode:multiply" opacity="0.6">
<path fill-rule="evenodd" clip-rule="evenodd" d="M62.9266 102.565C62.5845 104.814 62.259 104.504 61.6987 103.972L61.6987 103.972C61.2009 103.499 60.5179 102.851 59.4734 103.664C58.7227 104.502 57.6535 106.476 58.1585 107.031C61.1022 106.49 61.0885 109.797 58.1085 109.192C56.2203 110.186 55.0066 109.557 54.2278 109.154C53.5691 108.813 53.2215 108.633 53.0401 109.732C53.2912 111.226 54.5067 111.499 55.4923 111.719C56.4358 111.931 57.1686 112.095 56.6435 113.239L56.6246 113.331L56.6245 113.331C56.4051 114.398 56.2409 115.196 57.9129 115.427C59.6865 115.328 59.6004 116.928 59.5185 118.449C59.428 120.131 59.3427 121.714 61.7846 120.792C65.7902 120.499 64.4892 122.934 63.1477 125.445C62.9873 125.745 62.8264 126.046 62.6738 126.344C52.1205 118.042 45.3432 105.156 45.3432 90.6864C45.3432 74.9945 53.3142 61.1643 65.4282 53.024C65.8832 53.1199 66.3225 53.3235 66.7256 53.7023L66.7302 53.7116C66.6392 53.1094 66.7984 52.5003 67.0945 51.9563C68.0879 51.3498 69.1065 50.7806 70.1483 50.2504C70.3967 50.4917 70.5067 50.96 70.3791 51.7183C70.5963 51.8138 70.8454 51.8151 71.0756 51.8162H71.0756C71.5637 51.8187 71.967 51.8208 71.8031 52.7196C71.7337 53.5347 70.9917 53.7044 70.3013 53.8623L70.3012 53.8624C69.4532 54.0564 68.6831 54.2327 69.3326 55.5651C69.2646 55.8182 69.1822 56.0873 69.0967 56.3666C68.5592 58.1222 67.8982 60.2813 69.8922 61.4143C72.6028 54.2864 78.1785 56.3576 81.2601 57.5023L81.2603 57.5024C83.0149 58.154 83.9609 58.5054 83.1092 56.6874C77.6586 54.7966 80.5249 49.3059 85.4341 51.6159C84.6554 50.4717 83.4806 50.2504 82.3353 50.0346L82.3349 50.0346L82.3348 50.0345C81.1448 49.8105 79.9866 49.5924 79.3374 48.3513C79.3651 47.9612 79.7763 47.2836 80.2774 46.5436C81.9492 46.1509 83.6568 45.8507 85.3942 45.6487C85.8725 47.5657 86.7595 49.1482 87.9319 48.9566C88.504 49.0855 89.2163 49.0727 89.9339 49.0597L89.9342 49.0597C91.6529 49.0288 93.4016 48.9973 93.3278 50.9127C95.1281 50.1259 95.392 51.1979 95.6486 52.2403L95.6486 52.2403L95.6486 52.2404L95.6486 52.2404C95.7338 52.5862 95.8181 52.9289 95.9576 53.1993C101.655 56.2405 100.081 56.7561 98.3331 57.3284L98.333 57.3285L98.3328 57.3285C97.0967 57.7334 95.7739 58.1666 96.8766 59.5422C96.1694 60.6347 94.9645 59.97 93.739 59.2938C92.3786 58.5433 90.9928 57.7788 90.234 59.3886C89.9139 60.2067 91.0834 61.0852 92.4042 62.0773L92.4044 62.0775C93.9934 63.271 95.8011 64.6289 95.498 66.2438C94.3631 67.9266 95.4241 68.9531 96.5578 70.0499C97.6329 71.0899 98.7732 72.1931 98.1687 73.9792C97.4044 76.0097 100.503 77.0063 101.117 74.6545C101.54 72.9221 102.855 73.5554 104.024 74.3238C102.086 72.7031 100.826 66.1879 104.561 69.052C104.787 70.4038 105.827 71.0097 106.825 71.5906C107.979 72.2624 109.076 72.901 108.788 74.6219C106.949 77.8925 113.504 81.6092 119.465 84.9887C123.324 87.1769 126.935 89.2242 127.856 90.9171C127.464 93.6182 129.239 92.7846 128.702 90.6376C128.75 90.357 128.599 90.0441 128.455 89.746L128.455 89.7459L128.455 89.7455C128.228 89.2771 128.02 88.8457 128.629 88.6352C129.34 88.3873 129.51 88.9553 129.688 89.5527L129.688 89.5529C129.778 89.8535 129.87 90.1617 130.035 90.3769C130.494 85.487 135.144 93.6787 130.399 94.5497C134.103 97.4016 133.33 100.858 132.539 104.394C132.148 106.143 131.752 107.912 131.892 109.637C131.152 111.243 130.321 112.799 129.405 114.297C129.271 114.008 129.241 113.563 129.371 112.927C129.401 112.147 129.755 110.845 130.151 109.392L130.152 109.392C131.142 105.759 132.39 101.183 129.448 101.489C128.957 103.533 128.952 105.746 128.948 107.999C128.941 110.887 128.935 113.841 127.905 116.593C126.352 118.82 124.603 120.902 122.685 122.813C122.101 122.53 121.721 121.452 121.281 120.206C120.879 119.063 120.426 117.779 119.721 116.838C121.818 117.165 123.42 115.297 124.562 111.665C123.242 112.094 122.329 111.324 121.622 110.728C120.765 110.006 120.213 109.541 119.612 111.79C116.65 109.042 112.473 103.193 113.529 98.7829C114.922 95.9387 113.438 96.245 111.534 96.6382C110.441 96.8637 109.211 97.1177 108.305 96.8223C103.46 95.5136 103.97 101.335 104.425 104.465C103.786 106.019 104.549 106.996 105.308 107.969L105.308 107.969L105.308 107.969C105.718 108.494 106.126 109.017 106.313 109.629C107.056 109.786 107.755 109.694 108.427 109.606L108.427 109.606C109.83 109.422 111.114 109.254 112.437 111.399C115.304 112.434 114.696 114.377 114.061 116.401C113.466 118.3 112.848 120.271 115.062 121.631C116.786 123.81 115.307 126.088 113.005 126.944C113.25 122.286 113.1 122.322 112.087 122.56C111.401 122.722 110.32 122.977 108.697 121.933C109.352 124.453 107.095 124.923 105.853 123.554C106.086 122.755 105.896 122.102 105.707 121.455L105.707 121.455L105.707 121.454C105.556 120.937 105.407 120.424 105.476 119.842C104.429 121.258 103.273 119.94 103.515 118.487C103.165 117.153 104.399 116.016 105.461 115.037L105.461 115.037C106.764 113.837 107.807 112.876 105.348 112.084C104.435 111.01 103.709 112.366 102.968 113.752C102.416 114.782 101.856 115.829 101.203 115.902C100.611 115.321 100.918 114.603 101.247 113.832L101.247 113.832C101.582 113.047 101.941 112.207 101.394 111.404C101.399 109.277 99.5998 109.998 98.1178 110.592C96.7728 111.131 95.6893 111.566 96.4535 109.671C98.924 107.673 96.2988 105.862 95.6072 109.313C94.1509 108.181 95.3087 106.27 96.3217 104.598C97.4797 102.687 98.4485 101.088 95.1068 101.321C94.2476 102.236 93.9126 101.892 93.4669 101.433L93.4668 101.433C93.2115 101.17 92.9198 100.87 92.4725 100.748C88.141 101.217 87.6336 97.5751 87.0946 93.7059L87.0945 93.7059C86.6224 90.3165 86.1259 86.7531 83.0136 85.6266C81.8605 84.4132 82.071 85.2945 82.3123 86.3043C82.4442 86.8565 82.5853 87.4471 82.5177 87.7549C79.1684 86.987 79.3816 88.3944 79.5346 89.4049C79.6795 90.3616 79.7705 90.9626 76.735 89.0263C76.7942 90.8705 76.6167 98.089 74.3009 94.885C73.0598 93.0316 71.1212 92.3804 69.262 91.756C67.3046 91.0986 65.435 90.4706 64.56 88.5001C62.4534 86.5341 63.2845 85.2139 64.2892 83.6178L64.2892 83.6178L64.2896 83.6172C64.6366 83.0658 65.0044 82.4816 65.2788 81.8264C64.9816 78.9575 66.1616 79.7675 67.4972 80.6843L67.4975 80.6845C68.0632 81.0729 68.6568 81.4804 69.1779 81.6355C68.803 80.9746 68.4421 80.4045 68.1415 79.9295C66.9465 78.0416 66.702 77.6554 70.2972 79.0322C69.3329 77.6584 69.852 76.5156 70.3774 75.3589L70.3774 75.3589L70.3775 75.3588C70.6553 74.7473 70.9349 74.1318 70.9978 73.4763C71.0364 73.0778 70.8385 72.673 70.6422 72.2717L70.6422 72.2716L70.6421 72.2714C70.2832 71.5376 69.93 70.8154 71.0388 70.165C70.2153 69.1358 67.6947 68.9728 67.2488 70.7751C66.9577 73.9513 63.4362 73.616 63.0768 71.1803C65.4699 70.5609 67.0578 69.8018 66.3844 66.6024C68.4682 62.4855 55.6471 66.8586 55.9656 68.8797C56.0987 69.604 56.7878 69.6585 57.4321 69.7094L57.4325 69.7094L57.4326 69.7095C58.1096 69.7629 58.7369 69.8124 58.6181 70.6307C57.9967 71.2266 57.1866 71.0769 56.3878 70.9292C55.2449 70.7178 54.1249 70.5108 53.6134 72.4982C52.4648 75.6962 55.1233 75.9584 57.4034 76.1833L57.4034 76.1833C58.8356 76.3246 60.1185 76.4511 60.215 77.2811C60.2865 77.9996 60.7989 77.8519 61.3756 77.6856L61.3757 77.6856C61.8271 77.5555 62.3178 77.4141 62.6673 77.6677C61.7756 79.1439 57.0484 84.2016 56.2613 84.5369C56.6001 85.2819 58.2474 86.3254 59.9568 87.4081L59.957 87.4082C63.0455 89.3646 66.3363 91.4491 62.4762 92.1326C61.1199 92.1873 61.2758 92.7448 61.4171 93.2496C61.6003 93.9048 61.7588 94.4712 58.5544 93.7347C58.5457 94.8618 59.5341 94.9138 60.3354 94.956C61.2225 95.0027 61.8803 95.0374 60.7018 96.5056C58.8681 99.1699 60.117 99.4929 61.4342 99.8335L61.4343 99.8336C62.6336 100.144 63.8893 100.468 62.9266 102.588V102.565ZM116.865 73.9778L116.866 73.9789L116.866 73.9791L116.866 73.9792C117.027 74.3706 117.191 74.7676 117.305 75.1796C112.788 74.167 127.583 89.3466 127.828 73.2899C127.978 71.781 126.705 69.0287 125.89 67.5665C124.457 67.463 123.357 66.3568 122.309 65.3026L122.309 65.3025C121.188 64.1752 120.126 63.1074 118.779 63.389C117.109 64.9491 111.763 70.2815 116.395 71.3666C116.163 72.2764 116.509 73.1135 116.865 73.9778ZM64.0065 100.451L64.0066 100.451C64.3471 99.2912 64.6578 98.2334 65.2561 99.8029C65.462 100.561 66.0685 100.428 66.8892 100.249L66.8893 100.249L66.8894 100.249C68.2271 99.9576 70.1339 99.5417 71.8031 102.653C71.4082 102.968 70.9788 103.244 70.5494 103.519L70.5491 103.52C69.4498 104.225 68.3501 104.931 67.8267 106.304C67.0942 107.953 63.2815 106.495 63.3816 105.307C63.7124 104.6 63.4632 104.047 63.2392 103.55L63.2391 103.55C63.0164 103.056 62.8187 102.617 63.2406 102.136C63.5621 101.964 63.7903 101.187 64.0065 100.451Z" fill="#94A3B8"/>
</g>
<g filter="url(#filter1_f_1_6266)">
<ellipse cx="90.6863" cy="71.7922" rx="26.4502" ry="18.893" fill="url(#paint1_linear_1_6266)" style="mix-blend-mode:soft-light"/>
</g>
<g filter="url(#filter2_di_1_6266)">
<ellipse cx="111.941" cy="70.849" rx="4.25092" ry="5.6679" transform="rotate(-22.1932 111.941 70.849)" fill="#94A3B8"/>
</g>
<g filter="url(#filter3_di_1_6266)">
<ellipse cx="101.329" cy="90.4553" rx="5.31934" ry="3.70185" transform="rotate(-22.1932 101.329 90.4553)" fill="#64748B"/>
</g>
<g filter="url(#filter4_di_1_6266)">
<ellipse cx="73.7387" cy="64.8304" rx="4.23524" ry="4.3232" transform="rotate(15.8877 73.7387 64.8304)" fill="#94A3B8"/>
</g>
<g filter="url(#filter5_di_1_6266)">
<ellipse cx="79.4351" cy="124.848" rx="4.43423" ry="4.55446" transform="rotate(-20.5835 79.4351 124.848)" fill="#475569"/>
</g>
<g filter="url(#filter6_di_1_6266)">
<ellipse cx="101.885" cy="110.758" rx="6.80704" ry="5.6679" transform="rotate(-20.5835 101.885 110.758)" fill="#475569"/>
</g>
<g filter="url(#filter7_di_1_6266)">
<ellipse cx="72.3695" cy="98.0407" rx="3.49519" ry="2.91028" transform="rotate(56.5561 72.3695 98.0407)" fill="#64748B"/>
</g>
<g filter="url(#filter8_di_1_6266)">
<ellipse cx="58.1402" cy="105.976" rx="1.67855" ry="1.39765" transform="rotate(-20.5835 58.1402 105.976)" fill="#94A3B8"/>
</g>
<g filter="url(#filter9_di_1_6266)">
<ellipse cx="129.591" cy="84.083" rx="1.67855" ry="1.39765" transform="rotate(48.1814 129.591 84.083)" fill="#94A3B8"/>
</g>
<g filter="url(#filter10_di_1_6266)">
<ellipse cx="121.187" cy="115.541" rx="1.67855" ry="1.39765" transform="rotate(48.1814 121.187 115.541)" fill="#64748B"/>
</g>
<g filter="url(#filter11_di_1_6266)">
<ellipse cx="95.5831" cy="58.5773" rx="1.67855" ry="1.39765" transform="rotate(20.8278 95.5831 58.5773)" fill="#94A3B8"/>
</g>
<g filter="url(#filter12_di_1_6266)">
<ellipse cx="84.2503" cy="81.2537" rx="1.67855" ry="1.39765" transform="rotate(20.8278 84.2503 81.2537)" fill="#94A3B8"/>
</g>
<g filter="url(#filter13_di_1_6266)">
<ellipse cx="118.258" cy="95.4237" rx="1.67855" ry="1.39765" transform="rotate(94.6584 118.258 95.4237)" fill="#94A3B8"/>
</g>
<g filter="url(#filter14_di_1_6266)">
<ellipse cx="89.3818" cy="103.809" rx="1.67855" ry="1.39765" transform="rotate(94.6584 89.3818 103.809)" fill="#94A3B8"/>
</g>
<g filter="url(#filter15_di_1_6266)">
<ellipse cx="97.8837" cy="129.314" rx="1.67855" ry="1.39765" transform="rotate(94.6584 97.8837 129.314)" fill="#94A3B8"/>
</g>
<defs>
<filter id="filter0_ii_1_6266" x="45.3432" y="42.5079" width="90.6864" height="96.3543" filterUnits="userSpaceOnUse" color-interpolation-filters="sRGB">
<feFlood flood-opacity="0" result="BackgroundImageFix"/>
<feBlend mode="normal" in="SourceGraphic" in2="BackgroundImageFix" result="shape"/>
<feColorMatrix in="SourceAlpha" type="matrix" values="0 0 0 0 0 0 0 0 0 0 0 0 0 0 0 0 0 0 127 0" result="hardAlpha"/>
<feMorphology radius="2.83395" operator="erode" in="SourceAlpha" result="effect1_innerShadow_1_6266"/>
<feOffset dy="-2.83395"/>
<feGaussianBlur stdDeviation="8.50185"/>
<feComposite in2="hardAlpha" operator="arithmetic" k2="-1" k3="1"/>
<feColorMatrix type="matrix" values="0 0 0 0 0.278431 0 0 0 0 0.333333 0 0 0 0 0.411765 0 0 0 1 0"/>
<feBlend mode="normal" in2="shape" result="effect1_innerShadow_1_6266"/>
<feColorMatrix in="SourceAlpha" type="matrix" values="0 0 0 0 0 0 0 0 0 0 0 0 0 0 0 0 0 0 127 0" result="hardAlpha"/>
<feOffset dy="2.83395"/>
<feGaussianBlur stdDeviation="2.83395"/>
<feComposite in2="hardAlpha" operator="arithmetic" k2="-1" k3="1"/>
<feColorMatrix type="matrix" values="0 0 0 0 0.796078 0 0 0 0 0.835294 0 0 0 0 0.882353 0 0 0 1 0"/>
<feBlend mode="normal" in2="effect1_innerShadow_1_6266" result="effect2_innerShadow_1_6266"/>
</filter>
<filter id="filter1_f_1_6266" x="56.679" y="45.342" width="68.0148" height="52.9004" filterUnits="userSpaceOnUse" color-interpolation-filters="sRGB">
<feFlood flood-opacity="0" result="BackgroundImageFix"/>
<feBlend mode="normal" in="SourceGraphic" in2="BackgroundImageFix" result="shape"/>
<feGaussianBlur stdDeviation="3.7786" result="effect1_foregroundBlur_1_6266"/>
</filter>
<filter id="filter2_di_1_6266" x="106.043" y="65.3594" width="11.7968" height="13.8132" filterUnits="userSpaceOnUse" color-interpolation-filters="sRGB">
<feFlood flood-opacity="0" result="BackgroundImageFix"/>
<feColorMatrix in="SourceAlpha" type="matrix" values="0 0 0 0 0 0 0 0 0 0 0 0 0 0 0 0 0 0 127 0" result="hardAlpha"/>
<feOffset dy="1.41697"/>
<feGaussianBlur stdDeviation="0.708487"/>
<feComposite in2="hardAlpha" operator="out"/>
<feColorMatrix type="matrix" values="0 0 0 0 0.886275 0 0 0 0 0.909804 0 0 0 0 0.941176 0 0 0 0.7 0"/>
<feBlend mode="normal" in2="BackgroundImageFix" result="effect1_dropShadow_1_6266"/>
<feBlend mode="normal" in="SourceGraphic" in2="effect1_dropShadow_1_6266" result="shape"/>
<feColorMatrix in="SourceAlpha" type="matrix" values="0 0 0 0 0 0 0 0 0 0 0 0 0 0 0 0 0 0 127 0" result="hardAlpha"/>
<feOffset dy="1.41697"/>
<feGaussianBlur stdDeviation="1.41697"/>
<feComposite in2="hardAlpha" operator="arithmetic" k2="-1" k3="1"/>
<feColorMatrix type="matrix" values="0 0 0 0 0.392157 0 0 0 0 0.454902 0 0 0 0 0.545098 0 0 0 1 0"/>
<feBlend mode="normal" in2="shape" result="effect2_innerShadow_1_6266"/>
</filter>
<filter id="filter3_di_1_6266" x="94.791" y="86.4816" width="13.0764" height="10.7815" filterUnits="userSpaceOnUse" color-interpolation-filters="sRGB">
<feFlood flood-opacity="0" result="BackgroundImageFix"/>
<feColorMatrix in="SourceAlpha" type="matrix" values="0 0 0 0 0 0 0 0 0 0 0 0 0 0 0 0 0 0 127 0" result="hardAlpha"/>
<feOffset dy="1.41697"/>
<feGaussianBlur stdDeviation="0.708487"/>
<feComposite in2="hardAlpha" operator="out"/>
<feColorMatrix type="matrix" values="0 0 0 0 0.886275 0 0 0 0 0.909804 0 0 0 0 0.941176 0 0 0 0.7 0"/>
<feBlend mode="normal" in2="BackgroundImageFix" result="effect1_dropShadow_1_6266"/>
<feBlend mode="normal" in="SourceGraphic" in2="effect1_dropShadow_1_6266" result="shape"/>
<feColorMatrix in="SourceAlpha" type="matrix" values="0 0 0 0 0 0 0 0 0 0 0 0 0 0 0 0 0 0 127 0" result="hardAlpha"/>
<feOffset dy="1.41697"/>
<feGaussianBlur stdDeviation="1.41697"/>
<feComposite in2="hardAlpha" operator="arithmetic" k2="-1" k3="1"/>
<feColorMatrix type="matrix" values="0 0 0 0 0.392157 0 0 0 0 0.454902 0 0 0 0 0.545098 0 0 0 1 0"/>
<feBlend mode="normal" in2="shape" result="effect2_innerShadow_1_6266"/>
</filter>
<filter id="filter4_di_1_6266" x="68.0787" y="60.5126" width="11.3199" height="11.4695" filterUnits="userSpaceOnUse" color-interpolation-filters="sRGB">
<feFlood flood-opacity="0" result="BackgroundImageFix"/>
<feColorMatrix in="SourceAlpha" type="matrix" values="0 0 0 0 0 0 0 0 0 0 0 0 0 0 0 0 0 0 127 0" result="hardAlpha"/>
<feOffset dy="1.41697"/>
<feGaussianBlur stdDeviation="0.708487"/>
<feComposite in2="hardAlpha" operator="out"/>
<feColorMatrix type="matrix" values="0 0 0 0 0.886275 0 0 0 0 0.909804 0 0 0 0 0.941176 0 0 0 0.7 0"/>
<feBlend mode="normal" in2="BackgroundImageFix" result="effect1_dropShadow_1_6266"/>
<feBlend mode="normal" in="SourceGraphic" in2="effect1_dropShadow_1_6266" result="shape"/>
<feColorMatrix in="SourceAlpha" type="matrix" values="0 0 0 0 0 0 0 0 0 0 0 0 0 0 0 0 0 0 127 0" result="hardAlpha"/>
<feOffset dy="1.41697"/>
<feGaussianBlur stdDeviation="1.41697"/>
<feComposite in2="hardAlpha" operator="arithmetic" k2="-1" k3="1"/>
<feColorMatrix type="matrix" values="0 0 0 0 0.392157 0 0 0 0 0.454902 0 0 0 0 0.545098 0 0 0 1 0"/>
<feBlend mode="normal" in2="shape" result="effect2_innerShadow_1_6266"/>
</filter>
<filter id="filter5_di_1_6266" x="73.5676" y="120.307" width="11.7349" height="11.916" filterUnits="userSpaceOnUse" color-interpolation-filters="sRGB">
<feFlood flood-opacity="0" result="BackgroundImageFix"/>
<feColorMatrix in="SourceAlpha" type="matrix" values="0 0 0 0 0 0 0 0 0 0 0 0 0 0 0 0 0 0 127 0" result="hardAlpha"/>
<feOffset dy="1.41697"/>
<feGaussianBlur stdDeviation="0.708487"/>
<feComposite in2="hardAlpha" operator="out"/>
<feColorMatrix type="matrix" values="0 0 0 0 0.886275 0 0 0 0 0.909804 0 0 0 0 0.941176 0 0 0 0.15 0"/>
<feBlend mode="normal" in2="BackgroundImageFix" result="effect1_dropShadow_1_6266"/>
<feBlend mode="normal" in="SourceGraphic" in2="effect1_dropShadow_1_6266" result="shape"/>
<feColorMatrix in="SourceAlpha" type="matrix" values="0 0 0 0 0 0 0 0 0 0 0 0 0 0 0 0 0 0 127 0" result="hardAlpha"/>
<feOffset dy="1.41697"/>
<feGaussianBlur stdDeviation="1.41697"/>
<feComposite in2="hardAlpha" operator="arithmetic" k2="-1" k3="1"/>
<feColorMatrix type="matrix" values="0 0 0 0 0.392157 0 0 0 0 0.454902 0 0 0 0 0.545098 0 0 0 1 0"/>
<feBlend mode="normal" in2="shape" result="effect2_innerShadow_1_6266"/>
</filter>
<filter id="filter6_di_1_6266" x="93.79" y="104.936" width="16.1911" height="14.4784" filterUnits="userSpaceOnUse" color-interpolation-filters="sRGB">
<feFlood flood-opacity="0" result="BackgroundImageFix"/>
<feColorMatrix in="SourceAlpha" type="matrix" values="0 0 0 0 0 0 0 0 0 0 0 0 0 0 0 0 0 0 127 0" result="hardAlpha"/>
<feOffset dy="1.41697"/>
<feGaussianBlur stdDeviation="0.708487"/>
<feComposite in2="hardAlpha" operator="out"/>
<feColorMatrix type="matrix" values="0 0 0 0 0.886275 0 0 0 0 0.909804 0 0 0 0 0.941176 0 0 0 0.3 0"/>
<feBlend mode="normal" in2="BackgroundImageFix" result="effect1_dropShadow_1_6266"/>
<feBlend mode="normal" in="SourceGraphic" in2="effect1_dropShadow_1_6266" result="shape"/>
<feColorMatrix in="SourceAlpha" type="matrix" values="0 0 0 0 0 0 0 0 0 0 0 0 0 0 0 0 0 0 127 0" result="hardAlpha"/>
<feOffset dy="1.41697"/>
<feGaussianBlur stdDeviation="1.41697"/>
<feComposite in2="hardAlpha" operator="arithmetic" k2="-1" k3="1"/>
<feColorMatrix type="matrix" values="0 0 0 0 0.392157 0 0 0 0 0.454902 0 0 0 0 0.545098 0 0 0 1 0"/>
<feBlend mode="normal" in2="shape" result="effect2_innerShadow_1_6266"/>
</filter>
<filter id="filter7_di_1_6266" x="67.8528" y="94.7117" width="9.03345" height="9.49203" filterUnits="userSpaceOnUse" color-interpolation-filters="sRGB">
<feFlood flood-opacity="0" result="BackgroundImageFix"/>
<feColorMatrix in="SourceAlpha" type="matrix" values="0 0 0 0 0 0 0 0 0 0 0 0 0 0 0 0 0 0 127 0" result="hardAlpha"/>
<feOffset dy="1.41697"/>
<feGaussianBlur stdDeviation="0.708487"/>
<feComposite in2="hardAlpha" operator="out"/>
<feColorMatrix type="matrix" values="0 0 0 0 0.886275 0 0 0 0 0.909804 0 0 0 0 0.941176 0 0 0 0.7 0"/>
<feBlend mode="normal" in2="BackgroundImageFix" result="effect1_dropShadow_1_6266"/>
<feBlend mode="normal" in="SourceGraphic" in2="effect1_dropShadow_1_6266" result="shape"/>
<feColorMatrix in="SourceAlpha" type="matrix" values="0 0 0 0 0 0 0 0 0 0 0 0 0 0 0 0 0 0 127 0" result="hardAlpha"/>
<feOffset dy="1.41697"/>
<feGaussianBlur stdDeviation="1.41697"/>
<feComposite in2="hardAlpha" operator="arithmetic" k2="-1" k3="1"/>
<feColorMatrix type="matrix" values="0 0 0 0 0.392157 0 0 0 0 0.454902 0 0 0 0 0.545098 0 0 0 1 0"/>
<feBlend mode="normal" in2="shape" result="effect2_innerShadow_1_6266"/>
</filter>
<filter id="filter8_di_1_6266" x="55.0764" y="104.54" width="6.12768" height="5.70535" filterUnits="userSpaceOnUse" color-interpolation-filters="sRGB">
<feFlood flood-opacity="0" result="BackgroundImageFix"/>
<feColorMatrix in="SourceAlpha" type="matrix" values="0 0 0 0 0 0 0 0 0 0 0 0 0 0 0 0 0 0 127 0" result="hardAlpha"/>
<feOffset dy="1.41697"/>
<feGaussianBlur stdDeviation="0.708487"/>
<feComposite in2="hardAlpha" operator="out"/>
<feColorMatrix type="matrix" values="0 0 0 0 0.886275 0 0 0 0 0.909804 0 0 0 0 0.941176 0 0 0 0.2 0"/>
<feBlend mode="normal" in2="BackgroundImageFix" result="effect1_dropShadow_1_6266"/>
<feBlend mode="normal" in="SourceGraphic" in2="effect1_dropShadow_1_6266" result="shape"/>
<feColorMatrix in="SourceAlpha" type="matrix" values="0 0 0 0 0 0 0 0 0 0 0 0 0 0 0 0 0 0 127 0" result="hardAlpha"/>
<feOffset dy="1.41697"/>
<feGaussianBlur stdDeviation="1.41697"/>
<feComposite in2="hardAlpha" operator="arithmetic" k2="-1" k3="1"/>
<feColorMatrix type="matrix" values="0 0 0 0 0.392157 0 0 0 0 0.454902 0 0 0 0 0.545098 0 0 0 1 0"/>
<feBlend mode="normal" in2="shape" result="effect2_innerShadow_1_6266"/>
</filter>
<filter id="filter9_di_1_6266" x="126.645" y="82.523" width="5.89179" height="5.95397" filterUnits="userSpaceOnUse" color-interpolation-filters="sRGB">
<feFlood flood-opacity="0" result="BackgroundImageFix"/>
<feColorMatrix in="SourceAlpha" type="matrix" values="0 0 0 0 0 0 0 0 0 0 0 0 0 0 0 0 0 0 127 0" result="hardAlpha"/>
<feOffset dy="1.41697"/>
<feGaussianBlur stdDeviation="0.708487"/>
<feComposite in2="hardAlpha" operator="out"/>
<feColorMatrix type="matrix" values="0 0 0 0 0.886275 0 0 0 0 0.909804 0 0 0 0 0.941176 0 0 0 0.2 0"/>
<feBlend mode="normal" in2="BackgroundImageFix" result="effect1_dropShadow_1_6266"/>
<feBlend mode="normal" in="SourceGraphic" in2="effect1_dropShadow_1_6266" result="shape"/>
<feColorMatrix in="SourceAlpha" type="matrix" values="0 0 0 0 0 0 0 0 0 0 0 0 0 0 0 0 0 0 127 0" result="hardAlpha"/>
<feOffset dy="1.41697"/>
<feGaussianBlur stdDeviation="1.41697"/>
<feComposite in2="hardAlpha" operator="arithmetic" k2="-1" k3="1"/>
<feColorMatrix type="matrix" values="0 0 0 0 0.392157 0 0 0 0 0.454902 0 0 0 0 0.545098 0 0 0 1 0"/>
<feBlend mode="normal" in2="shape" result="effect2_innerShadow_1_6266"/>
</filter>
<filter id="filter10_di_1_6266" x="118.241" y="113.981" width="5.8918" height="5.95398" filterUnits="userSpaceOnUse" color-interpolation-filters="sRGB">
<feFlood flood-opacity="0" result="BackgroundImageFix"/>
<feColorMatrix in="SourceAlpha" type="matrix" values="0 0 0 0 0 0 0 0 0 0 0 0 0 0 0 0 0 0 127 0" result="hardAlpha"/>
<feOffset dy="1.41697"/>
<feGaussianBlur stdDeviation="0.708487"/>
<feComposite in2="hardAlpha" operator="out"/>
<feColorMatrix type="matrix" values="0 0 0 0 0.886275 0 0 0 0 0.909804 0 0 0 0 0.941176 0 0 0 0.2 0"/>
<feBlend mode="normal" in2="BackgroundImageFix" result="effect1_dropShadow_1_6266"/>
<feBlend mode="normal" in="SourceGraphic" in2="effect1_dropShadow_1_6266" result="shape"/>
<feColorMatrix in="SourceAlpha" type="matrix" values="0 0 0 0 0 0 0 0 0 0 0 0 0 0 0 0 0 0 127 0" result="hardAlpha"/>
<feOffset dy="1.41697"/>
<feGaussianBlur stdDeviation="1.41697"/>
<feComposite in2="hardAlpha" operator="arithmetic" k2="-1" k3="1"/>
<feColorMatrix type="matrix" values="0 0 0 0 0.392157 0 0 0 0 0.454902 0 0 0 0 0.545098 0 0 0 1 0"/>
<feBlend mode="normal" in2="shape" result="effect2_innerShadow_1_6266"/>
</filter>
<filter id="filter11_di_1_6266" x="92.52" y="57.1407" width="6.1262" height="5.70704" filterUnits="userSpaceOnUse" color-interpolation-filters="sRGB">
<feFlood flood-opacity="0" result="BackgroundImageFix"/>
<feColorMatrix in="SourceAlpha" type="matrix" values="0 0 0 0 0 0 0 0 0 0 0 0 0 0 0 0 0 0 127 0" result="hardAlpha"/>
<feOffset dy="1.41697"/>
<feGaussianBlur stdDeviation="0.708487"/>
<feComposite in2="hardAlpha" operator="out"/>
<feColorMatrix type="matrix" values="0 0 0 0 0.886275 0 0 0 0 0.909804 0 0 0 0 0.941176 0 0 0 0.7 0"/>
<feBlend mode="normal" in2="BackgroundImageFix" result="effect1_dropShadow_1_6266"/>
<feBlend mode="normal" in="SourceGraphic" in2="effect1_dropShadow_1_6266" result="shape"/>
<feColorMatrix in="SourceAlpha" type="matrix" values="0 0 0 0 0 0 0 0 0 0 0 0 0 0 0 0 0 0 127 0" result="hardAlpha"/>
<feOffset dy="1.41697"/>
<feGaussianBlur stdDeviation="1.41697"/>
<feComposite in2="hardAlpha" operator="arithmetic" k2="-1" k3="1"/>
<feColorMatrix type="matrix" values="0 0 0 0 0.392157 0 0 0 0 0.454902 0 0 0 0 0.545098 0 0 0 1 0"/>
<feBlend mode="normal" in2="shape" result="effect2_innerShadow_1_6266"/>
</filter>
<filter id="filter12_di_1_6266" x="81.1872" y="79.8172" width="6.1262" height="5.70704" filterUnits="userSpaceOnUse" color-interpolation-filters="sRGB">
<feFlood flood-opacity="0" result="BackgroundImageFix"/>
<feColorMatrix in="SourceAlpha" type="matrix" values="0 0 0 0 0 0 0 0 0 0 0 0 0 0 0 0 0 0 127 0" result="hardAlpha"/>
<feOffset dy="1.41697"/>
<feGaussianBlur stdDeviation="0.708487"/>
<feComposite in2="hardAlpha" operator="out"/>
<feColorMatrix type="matrix" values="0 0 0 0 0.886275 0 0 0 0 0.909804 0 0 0 0 0.941176 0 0 0 0.7 0"/>
<feBlend mode="normal" in2="BackgroundImageFix" result="effect1_dropShadow_1_6266"/>
<feBlend mode="normal" in="SourceGraphic" in2="effect1_dropShadow_1_6266" result="shape"/>
<feColorMatrix in="SourceAlpha" type="matrix" values="0 0 0 0 0 0 0 0 0 0 0 0 0 0 0 0 0 0 127 0" result="hardAlpha"/>
<feOffset dy="1.41697"/>
<feGaussianBlur stdDeviation="1.41697"/>
<feComposite in2="hardAlpha" operator="arithmetic" k2="-1" k3="1"/>
<feColorMatrix type="matrix" values="0 0 0 0 0.392157 0 0 0 0 0.454902 0 0 0 0 0.545098 0 0 0 1 0"/>
<feBlend mode="normal" in2="shape" result="effect2_innerShadow_1_6266"/>
</filter>
<filter id="filter13_di_1_6266" x="115.441" y="93.7468" width="5.63352" height="6.18778" filterUnits="userSpaceOnUse" color-interpolation-filters="sRGB">
<feFlood flood-opacity="0" result="BackgroundImageFix"/>
<feColorMatrix in="SourceAlpha" type="matrix" values="0 0 0 0 0 0 0 0 0 0 0 0 0 0 0 0 0 0 127 0" result="hardAlpha"/>
<feOffset dy="1.41697"/>
<feGaussianBlur stdDeviation="0.708487"/>
<feComposite in2="hardAlpha" operator="out"/>
<feColorMatrix type="matrix" values="0 0 0 0 0.886275 0 0 0 0 0.909804 0 0 0 0 0.941176 0 0 0 0.4 0"/>
<feBlend mode="normal" in2="BackgroundImageFix" result="effect1_dropShadow_1_6266"/>
<feBlend mode="normal" in="SourceGraphic" in2="effect1_dropShadow_1_6266" result="shape"/>
<feColorMatrix in="SourceAlpha" type="matrix" values="0 0 0 0 0 0 0 0 0 0 0 0 0 0 0 0 0 0 127 0" result="hardAlpha"/>
<feOffset dy="1.41697"/>
<feGaussianBlur stdDeviation="1.41697"/>
<feComposite in2="hardAlpha" operator="arithmetic" k2="-1" k3="1"/>
<feColorMatrix type="matrix" values="0 0 0 0 0.392157 0 0 0 0 0.454902 0 0 0 0 0.545098 0 0 0 1 0"/>
<feBlend mode="normal" in2="shape" result="effect2_innerShadow_1_6266"/>
</filter>
<filter id="filter14_di_1_6266" x="86.565" y="102.132" width="5.63352" height="6.18777" filterUnits="userSpaceOnUse" color-interpolation-filters="sRGB">
<feFlood flood-opacity="0" result="BackgroundImageFix"/>
<feColorMatrix in="SourceAlpha" type="matrix" values="0 0 0 0 0 0 0 0 0 0 0 0 0 0 0 0 0 0 127 0" result="hardAlpha"/>
<feOffset dy="1.41697"/>
<feGaussianBlur stdDeviation="0.708487"/>
<feComposite in2="hardAlpha" operator="out"/>
<feColorMatrix type="matrix" values="0 0 0 0 0.886275 0 0 0 0 0.909804 0 0 0 0 0.941176 0 0 0 0.4 0"/>
<feBlend mode="normal" in2="BackgroundImageFix" result="effect1_dropShadow_1_6266"/>
<feBlend mode="normal" in="SourceGraphic" in2="effect1_dropShadow_1_6266" result="shape"/>
<feColorMatrix in="SourceAlpha" type="matrix" values="0 0 0 0 0 0 0 0 0 0 0 0 0 0 0 0 0 0 127 0" result="hardAlpha"/>
<feOffset dy="1.41697"/>
<feGaussianBlur stdDeviation="1.41697"/>
<feComposite in2="hardAlpha" operator="arithmetic" k2="-1" k3="1"/>
<feColorMatrix type="matrix" values="0 0 0 0 0.392157 0 0 0 0 0.454902 0 0 0 0 0.545098 0 0 0 1 0"/>
<feBlend mode="normal" in2="shape" result="effect2_innerShadow_1_6266"/>
</filter>
<filter id="filter15_di_1_6266" x="95.0669" y="127.637" width="5.63352" height="6.18778" filterUnits="userSpaceOnUse" color-interpolation-filters="sRGB">
<feFlood flood-opacity="0" result="BackgroundImageFix"/>
<feColorMatrix in="SourceAlpha" type="matrix" values="0 0 0 0 0 0 0 0 0 0 0 0 0 0 0 0 0 0 127 0" result="hardAlpha"/>
<feOffset dy="1.41697"/>
<feGaussianBlur stdDeviation="0.708487"/>
<feComposite in2="hardAlpha" operator="out"/>
<feColorMatrix type="matrix" values="0 0 0 0 0.886275 0 0 0 0 0.909804 0 0 0 0 0.941176 0 0 0 0.2 0"/>
<feBlend mode="normal" in2="BackgroundImageFix" result="effect1_dropShadow_1_6266"/>
<feBlend mode="normal" in="SourceGraphic" in2="effect1_dropShadow_1_6266" result="shape"/>
<feColorMatrix in="SourceAlpha" type="matrix" values="0 0 0 0 0 0 0 0 0 0 0 0 0 0 0 0 0 0 127 0" result="hardAlpha"/>
<feOffset dy="1.41697"/>
<feGaussianBlur stdDeviation="1.41697"/>
<feComposite in2="hardAlpha" operator="arithmetic" k2="-1" k3="1"/>
<feColorMatrix type="matrix" values="0 0 0 0 0.392157 0 0 0 0 0.454902 0 0 0 0 0.545098 0 0 0 1 0"/>
<feBlend mode="normal" in2="shape" result="effect2_innerShadow_1_6266"/>
</filter>
<linearGradient id="paint0_linear_1_6266" x1="90.6864" y1="45.3418" x2="90.6864" y2="136.028" gradientUnits="userSpaceOnUse">
<stop stop-color="#E2E8F0"/>
<stop offset="1" stop-color="#64748B"/>
</linearGradient>
<linearGradient id="paint1_linear_1_6266" x1="90.6863" y1="52.8992" x2="90.6863" y2="90.6852" gradientUnits="userSpaceOnUse">
<stop stop-color="#F1F5F9"/>
<stop offset="1" stop-color="#E2E8F0" stop-opacity="0"/>
</linearGradient>
</defs>
</svg>
